%TF.GenerationSoftware,KiCad,Pcbnew,(5.1.10)-1*%
%TF.CreationDate,2021-11-29T01:36:57-08:00*%
%TF.ProjectId,backpanel,6261636b-7061-46e6-956c-2e6b69636164,rev?*%
%TF.SameCoordinates,PX18392c0PYda028c0*%
%TF.FileFunction,Legend,Top*%
%TF.FilePolarity,Positive*%
%FSLAX46Y46*%
G04 Gerber Fmt 4.6, Leading zero omitted, Abs format (unit mm)*
G04 Created by KiCad (PCBNEW (5.1.10)-1) date 2021-11-29 01:36:57*
%MOMM*%
%LPD*%
G01*
G04 APERTURE LIST*
%ADD10C,0.450000*%
%ADD11C,0.100000*%
%ADD12C,0.400000*%
%ADD13C,0.010000*%
G04 APERTURE END LIST*
D10*
X35375000Y192500477D02*
X35375000Y196500477D01*
X36898809Y196500477D01*
X37279761Y196310000D01*
X37470238Y196119524D01*
X37660714Y195738572D01*
X37660714Y195167143D01*
X37470238Y194786191D01*
X37279761Y194595715D01*
X36898809Y194405239D01*
X35375000Y194405239D01*
X39375000Y192500477D02*
X39375000Y196500477D01*
X40327380Y196500477D01*
X40898809Y196310000D01*
X41279761Y195929048D01*
X41470238Y195548096D01*
X41660714Y194786191D01*
X41660714Y194214762D01*
X41470238Y193452858D01*
X41279761Y193071905D01*
X40898809Y192690953D01*
X40327380Y192500477D01*
X39375000Y192500477D01*
X42994047Y196500477D02*
X45470238Y196500477D01*
X44136904Y194976667D01*
X44708333Y194976667D01*
X45089285Y194786191D01*
X45279761Y194595715D01*
X45470238Y194214762D01*
X45470238Y193262381D01*
X45279761Y192881429D01*
X45089285Y192690953D01*
X44708333Y192500477D01*
X43565476Y192500477D01*
X43184523Y192690953D01*
X42994047Y192881429D01*
X47946428Y196500477D02*
X48327380Y196500477D01*
X48708333Y196310000D01*
X48898809Y196119524D01*
X49089285Y195738572D01*
X49279761Y194976667D01*
X49279761Y194024286D01*
X49089285Y193262381D01*
X48898809Y192881429D01*
X48708333Y192690953D01*
X48327380Y192500477D01*
X47946428Y192500477D01*
X47565476Y192690953D01*
X47375000Y192881429D01*
X47184523Y193262381D01*
X46994047Y194024286D01*
X46994047Y194976667D01*
X47184523Y195738572D01*
X47375000Y196119524D01*
X47565476Y196310000D01*
X47946428Y196500477D01*
X53089285Y192500477D02*
X50803571Y192500477D01*
X51946428Y192500477D02*
X51946428Y196500477D01*
X51565476Y195929048D01*
X51184523Y195548096D01*
X50803571Y195357620D01*
X57851190Y192500477D02*
X57851190Y196500477D01*
X59375000Y196500477D01*
X59755952Y196310000D01*
X59946428Y196119524D01*
X60136904Y195738572D01*
X60136904Y195167143D01*
X59946428Y194786191D01*
X59755952Y194595715D01*
X59375000Y194405239D01*
X57851190Y194405239D01*
X64136904Y192881429D02*
X63946428Y192690953D01*
X63375000Y192500477D01*
X62994047Y192500477D01*
X62422619Y192690953D01*
X62041666Y193071905D01*
X61851190Y193452858D01*
X61660714Y194214762D01*
X61660714Y194786191D01*
X61851190Y195548096D01*
X62041666Y195929048D01*
X62422619Y196310000D01*
X62994047Y196500477D01*
X63375000Y196500477D01*
X63946428Y196310000D01*
X64136904Y196119524D01*
X68708333Y196690953D02*
X65279761Y191548096D01*
X72136904Y192500477D02*
X69851190Y192500477D01*
X70994047Y192500477D02*
X70994047Y196500477D01*
X70613095Y195929048D01*
X70232142Y195548096D01*
X69851190Y195357620D01*
X74613095Y196500477D02*
X74994047Y196500477D01*
X75375000Y196310000D01*
X75565476Y196119524D01*
X75755952Y195738572D01*
X75946428Y194976667D01*
X75946428Y194024286D01*
X75755952Y193262381D01*
X75565476Y192881429D01*
X75375000Y192690953D01*
X74994047Y192500477D01*
X74613095Y192500477D01*
X74232142Y192690953D01*
X74041666Y192881429D01*
X73851190Y193262381D01*
X73660714Y194024286D01*
X73660714Y194976667D01*
X73851190Y195738572D01*
X74041666Y196119524D01*
X74232142Y196310000D01*
X74613095Y196500477D01*
X79374999Y195167143D02*
X79374999Y192500477D01*
X78422619Y196690953D02*
X77470238Y193833810D01*
X79946428Y193833810D01*
X86803571Y192881429D02*
X86613095Y192690953D01*
X86041666Y192500477D01*
X85660714Y192500477D01*
X85089285Y192690953D01*
X84708333Y193071905D01*
X84517857Y193452858D01*
X84327380Y194214762D01*
X84327380Y194786191D01*
X84517857Y195548096D01*
X84708333Y195929048D01*
X85089285Y196310000D01*
X85660714Y196500477D01*
X86041666Y196500477D01*
X86613095Y196310000D01*
X86803571Y196119524D01*
X90232142Y192500477D02*
X90232142Y194595715D01*
X90041666Y194976667D01*
X89660714Y195167143D01*
X88898809Y195167143D01*
X88517857Y194976667D01*
X90232142Y192690953D02*
X89851190Y192500477D01*
X88898809Y192500477D01*
X88517857Y192690953D01*
X88327380Y193071905D01*
X88327380Y193452858D01*
X88517857Y193833810D01*
X88898809Y194024286D01*
X89851190Y194024286D01*
X90232142Y194214762D01*
X92136904Y192500477D02*
X92136904Y195167143D01*
X92136904Y194405239D02*
X92327380Y194786191D01*
X92517857Y194976667D01*
X92898809Y195167143D01*
X93279761Y195167143D01*
X94613095Y192500477D02*
X94613095Y195167143D01*
X94613095Y194405239D02*
X94803571Y194786191D01*
X94994047Y194976667D01*
X95374999Y195167143D01*
X95755952Y195167143D01*
X97089285Y192500477D02*
X97089285Y195167143D01*
X97089285Y196500477D02*
X96898809Y196310000D01*
X97089285Y196119524D01*
X97279761Y196310000D01*
X97089285Y196500477D01*
X97089285Y196119524D01*
X100517857Y192690953D02*
X100136904Y192500477D01*
X99374999Y192500477D01*
X98994047Y192690953D01*
X98803571Y193071905D01*
X98803571Y194595715D01*
X98994047Y194976667D01*
X99374999Y195167143D01*
X100136904Y195167143D01*
X100517857Y194976667D01*
X100708333Y194595715D01*
X100708333Y194214762D01*
X98803571Y193833810D01*
X102422619Y192500477D02*
X102422619Y195167143D01*
X102422619Y194405239D02*
X102613095Y194786191D01*
X102803571Y194976667D01*
X103184523Y195167143D01*
X103565476Y195167143D01*
X109279761Y194595715D02*
X109851190Y194405239D01*
X110041666Y194214762D01*
X110232142Y193833810D01*
X110232142Y193262381D01*
X110041666Y192881429D01*
X109851190Y192690953D01*
X109470238Y192500477D01*
X107946428Y192500477D01*
X107946428Y196500477D01*
X109279761Y196500477D01*
X109660714Y196310000D01*
X109851190Y196119524D01*
X110041666Y195738572D01*
X110041666Y195357620D01*
X109851190Y194976667D01*
X109660714Y194786191D01*
X109279761Y194595715D01*
X107946428Y194595715D01*
X112517857Y192500477D02*
X112136904Y192690953D01*
X111946428Y192881429D01*
X111755952Y193262381D01*
X111755952Y194405239D01*
X111946428Y194786191D01*
X112136904Y194976667D01*
X112517857Y195167143D01*
X113089285Y195167143D01*
X113470238Y194976667D01*
X113660714Y194786191D01*
X113851190Y194405239D01*
X113851190Y193262381D01*
X113660714Y192881429D01*
X113470238Y192690953D01*
X113089285Y192500477D01*
X112517857Y192500477D01*
X117279761Y192500477D02*
X117279761Y194595715D01*
X117089285Y194976667D01*
X116708333Y195167143D01*
X115946428Y195167143D01*
X115565476Y194976667D01*
X117279761Y192690953D02*
X116898809Y192500477D01*
X115946428Y192500477D01*
X115565476Y192690953D01*
X115374999Y193071905D01*
X115374999Y193452858D01*
X115565476Y193833810D01*
X115946428Y194024286D01*
X116898809Y194024286D01*
X117279761Y194214762D01*
X119184523Y192500477D02*
X119184523Y195167143D01*
X119184523Y194405239D02*
X119374999Y194786191D01*
X119565476Y194976667D01*
X119946428Y195167143D01*
X120327380Y195167143D01*
X123374999Y192500477D02*
X123374999Y196500477D01*
X123374999Y192690953D02*
X122994047Y192500477D01*
X122232142Y192500477D01*
X121851190Y192690953D01*
X121660714Y192881429D01*
X121470238Y193262381D01*
X121470238Y194405239D01*
X121660714Y194786191D01*
X121851190Y194976667D01*
X122232142Y195167143D01*
X122994047Y195167143D01*
X123374999Y194976667D01*
D11*
G36*
X0Y200025000D02*
G01*
X0Y203200000D01*
X3175000Y203200000D01*
X0Y200025000D01*
G37*
X0Y200025000D02*
X0Y203200000D01*
X3175000Y203200000D01*
X0Y200025000D01*
G36*
X0Y194945000D02*
G01*
X0Y197485000D01*
X5715000Y203200000D01*
X8255000Y203200000D01*
X0Y194945000D01*
G37*
X0Y194945000D02*
X0Y197485000D01*
X5715000Y203200000D01*
X8255000Y203200000D01*
X0Y194945000D01*
G36*
X0Y180721000D02*
G01*
X0Y180975000D01*
X22225000Y203200000D01*
X22479000Y203200000D01*
X0Y180721000D01*
G37*
X0Y180721000D02*
X0Y180975000D01*
X22225000Y203200000D01*
X22479000Y203200000D01*
X0Y180721000D01*
G36*
X0Y183515000D02*
G01*
X0Y184150000D01*
X19050000Y203200000D01*
X19685000Y203200000D01*
X0Y183515000D01*
G37*
X0Y183515000D02*
X0Y184150000D01*
X19050000Y203200000D01*
X19685000Y203200000D01*
X0Y183515000D01*
G36*
X0Y186690000D02*
G01*
X0Y187960000D01*
X15240000Y203200000D01*
X16510000Y203200000D01*
X0Y186690000D01*
G37*
X0Y186690000D02*
X0Y187960000D01*
X15240000Y203200000D01*
X16510000Y203200000D01*
X0Y186690000D01*
G36*
X0Y190500000D02*
G01*
X0Y192405000D01*
X10795000Y203200000D01*
X12700000Y203200000D01*
X0Y190500000D01*
G37*
X0Y190500000D02*
X0Y192405000D01*
X10795000Y203200000D01*
X12700000Y203200000D01*
X0Y190500000D01*
D12*
X133997523Y179836096D02*
X134354666Y179717048D01*
X134949904Y179717048D01*
X135188000Y179836096D01*
X135307047Y179955143D01*
X135426095Y180193239D01*
X135426095Y180431334D01*
X135307047Y180669429D01*
X135188000Y180788477D01*
X134949904Y180907524D01*
X134473714Y181026572D01*
X134235619Y181145620D01*
X134116571Y181264667D01*
X133997523Y181502762D01*
X133997523Y181740858D01*
X134116571Y181978953D01*
X134235619Y182098000D01*
X134473714Y182217048D01*
X135068952Y182217048D01*
X135426095Y182098000D01*
X137449904Y179836096D02*
X137211809Y179717048D01*
X136735619Y179717048D01*
X136497523Y179836096D01*
X136378476Y180074191D01*
X136378476Y181026572D01*
X136497523Y181264667D01*
X136735619Y181383715D01*
X137211809Y181383715D01*
X137449904Y181264667D01*
X137568952Y181026572D01*
X137568952Y180788477D01*
X136378476Y180550381D01*
X138640380Y179717048D02*
X138640380Y181383715D01*
X138640380Y180907524D02*
X138759428Y181145620D01*
X138878476Y181264667D01*
X139116571Y181383715D01*
X139354666Y181383715D01*
X140188000Y179717048D02*
X140188000Y181383715D01*
X140188000Y182217048D02*
X140068952Y182098000D01*
X140188000Y181978953D01*
X140307047Y182098000D01*
X140188000Y182217048D01*
X140188000Y181978953D01*
X142449904Y179717048D02*
X142449904Y181026572D01*
X142330857Y181264667D01*
X142092761Y181383715D01*
X141616571Y181383715D01*
X141378476Y181264667D01*
X142449904Y179836096D02*
X142211809Y179717048D01*
X141616571Y179717048D01*
X141378476Y179836096D01*
X141259428Y180074191D01*
X141259428Y180312286D01*
X141378476Y180550381D01*
X141616571Y180669429D01*
X142211809Y180669429D01*
X142449904Y180788477D01*
X143997523Y179717048D02*
X143759428Y179836096D01*
X143640380Y180074191D01*
X143640380Y182217048D01*
X107589238Y182217048D02*
X107589238Y180193239D01*
X107708285Y179955143D01*
X107827333Y179836096D01*
X108065428Y179717048D01*
X108541619Y179717048D01*
X108779714Y179836096D01*
X108898761Y179955143D01*
X109017809Y180193239D01*
X109017809Y182217048D01*
X110089238Y179836096D02*
X110446380Y179717048D01*
X111041619Y179717048D01*
X111279714Y179836096D01*
X111398761Y179955143D01*
X111517809Y180193239D01*
X111517809Y180431334D01*
X111398761Y180669429D01*
X111279714Y180788477D01*
X111041619Y180907524D01*
X110565428Y181026572D01*
X110327333Y181145620D01*
X110208285Y181264667D01*
X110089238Y181502762D01*
X110089238Y181740858D01*
X110208285Y181978953D01*
X110327333Y182098000D01*
X110565428Y182217048D01*
X111160666Y182217048D01*
X111517809Y182098000D01*
X113422571Y181026572D02*
X113779714Y180907524D01*
X113898761Y180788477D01*
X114017809Y180550381D01*
X114017809Y180193239D01*
X113898761Y179955143D01*
X113779714Y179836096D01*
X113541619Y179717048D01*
X112589238Y179717048D01*
X112589238Y182217048D01*
X113422571Y182217048D01*
X113660666Y182098000D01*
X113779714Y181978953D01*
X113898761Y181740858D01*
X113898761Y181502762D01*
X113779714Y181264667D01*
X113660666Y181145620D01*
X113422571Y181026572D01*
X112589238Y181026572D01*
X84864428Y179717048D02*
X84864428Y182217048D01*
X85697761Y180431334D01*
X86531095Y182217048D01*
X86531095Y179717048D01*
X88078714Y179717048D02*
X87840619Y179836096D01*
X87721571Y179955143D01*
X87602523Y180193239D01*
X87602523Y180907524D01*
X87721571Y181145620D01*
X87840619Y181264667D01*
X88078714Y181383715D01*
X88435857Y181383715D01*
X88673952Y181264667D01*
X88793000Y181145620D01*
X88912047Y180907524D01*
X88912047Y180193239D01*
X88793000Y179955143D01*
X88673952Y179836096D01*
X88435857Y179717048D01*
X88078714Y179717048D01*
X91054904Y181383715D02*
X91054904Y179717048D01*
X89983476Y181383715D02*
X89983476Y180074191D01*
X90102523Y179836096D01*
X90340619Y179717048D01*
X90697761Y179717048D01*
X90935857Y179836096D01*
X91054904Y179955143D01*
X92126333Y179836096D02*
X92364428Y179717048D01*
X92840619Y179717048D01*
X93078714Y179836096D01*
X93197761Y180074191D01*
X93197761Y180193239D01*
X93078714Y180431334D01*
X92840619Y180550381D01*
X92483476Y180550381D01*
X92245380Y180669429D01*
X92126333Y180907524D01*
X92126333Y181026572D01*
X92245380Y181264667D01*
X92483476Y181383715D01*
X92840619Y181383715D01*
X93078714Y181264667D01*
X95221571Y179836096D02*
X94983476Y179717048D01*
X94507285Y179717048D01*
X94269190Y179836096D01*
X94150142Y180074191D01*
X94150142Y181026572D01*
X94269190Y181264667D01*
X94507285Y181383715D01*
X94983476Y181383715D01*
X95221571Y181264667D01*
X95340619Y181026572D01*
X95340619Y180788477D01*
X94150142Y180550381D01*
X61111809Y179717048D02*
X61111809Y182217048D01*
X62540380Y179717048D02*
X61468952Y181145620D01*
X62540380Y182217048D02*
X61111809Y180788477D01*
X64564190Y179836096D02*
X64326095Y179717048D01*
X63849904Y179717048D01*
X63611809Y179836096D01*
X63492761Y180074191D01*
X63492761Y181026572D01*
X63611809Y181264667D01*
X63849904Y181383715D01*
X64326095Y181383715D01*
X64564190Y181264667D01*
X64683238Y181026572D01*
X64683238Y180788477D01*
X63492761Y180550381D01*
X65516571Y181383715D02*
X66111809Y179717048D01*
X66707047Y181383715D02*
X66111809Y179717048D01*
X65873714Y179121810D01*
X65754666Y179002762D01*
X65516571Y178883715D01*
X67659428Y179717048D02*
X67659428Y182217048D01*
X67659428Y181264667D02*
X67897523Y181383715D01*
X68373714Y181383715D01*
X68611809Y181264667D01*
X68730857Y181145620D01*
X68849904Y180907524D01*
X68849904Y180193239D01*
X68730857Y179955143D01*
X68611809Y179836096D01*
X68373714Y179717048D01*
X67897523Y179717048D01*
X67659428Y179836096D01*
X70278476Y179717048D02*
X70040380Y179836096D01*
X69921333Y179955143D01*
X69802285Y180193239D01*
X69802285Y180907524D01*
X69921333Y181145620D01*
X70040380Y181264667D01*
X70278476Y181383715D01*
X70635619Y181383715D01*
X70873714Y181264667D01*
X70992761Y181145620D01*
X71111809Y180907524D01*
X71111809Y180193239D01*
X70992761Y179955143D01*
X70873714Y179836096D01*
X70635619Y179717048D01*
X70278476Y179717048D01*
X73254666Y179717048D02*
X73254666Y181026572D01*
X73135619Y181264667D01*
X72897523Y181383715D01*
X72421333Y181383715D01*
X72183238Y181264667D01*
X73254666Y179836096D02*
X73016571Y179717048D01*
X72421333Y179717048D01*
X72183238Y179836096D01*
X72064190Y180074191D01*
X72064190Y180312286D01*
X72183238Y180550381D01*
X72421333Y180669429D01*
X73016571Y180669429D01*
X73254666Y180788477D01*
X74445142Y179717048D02*
X74445142Y181383715D01*
X74445142Y180907524D02*
X74564190Y181145620D01*
X74683238Y181264667D01*
X74921333Y181383715D01*
X75159428Y181383715D01*
X77064190Y179717048D02*
X77064190Y182217048D01*
X77064190Y179836096D02*
X76826095Y179717048D01*
X76349904Y179717048D01*
X76111809Y179836096D01*
X75992761Y179955143D01*
X75873714Y180193239D01*
X75873714Y180907524D01*
X75992761Y181145620D01*
X76111809Y181264667D01*
X76349904Y181383715D01*
X76826095Y181383715D01*
X77064190Y181264667D01*
X41025809Y179717048D02*
X41025809Y182217048D01*
X42454380Y179717048D01*
X42454380Y182217048D01*
X44597238Y179836096D02*
X44359142Y179717048D01*
X43882952Y179717048D01*
X43644857Y179836096D01*
X43525809Y180074191D01*
X43525809Y181026572D01*
X43644857Y181264667D01*
X43882952Y181383715D01*
X44359142Y181383715D01*
X44597238Y181264667D01*
X44716285Y181026572D01*
X44716285Y180788477D01*
X43525809Y180550381D01*
X45430571Y181383715D02*
X46382952Y181383715D01*
X45787714Y182217048D02*
X45787714Y180074191D01*
X45906761Y179836096D01*
X46144857Y179717048D01*
X46382952Y179717048D01*
X46978190Y181383715D02*
X47454380Y179717048D01*
X47930571Y180907524D01*
X48406761Y179717048D01*
X48882952Y181383715D01*
X50192476Y179717048D02*
X49954380Y179836096D01*
X49835333Y179955143D01*
X49716285Y180193239D01*
X49716285Y180907524D01*
X49835333Y181145620D01*
X49954380Y181264667D01*
X50192476Y181383715D01*
X50549619Y181383715D01*
X50787714Y181264667D01*
X50906761Y181145620D01*
X51025809Y180907524D01*
X51025809Y180193239D01*
X50906761Y179955143D01*
X50787714Y179836096D01*
X50549619Y179717048D01*
X50192476Y179717048D01*
X52097238Y179717048D02*
X52097238Y181383715D01*
X52097238Y180907524D02*
X52216285Y181145620D01*
X52335333Y181264667D01*
X52573428Y181383715D01*
X52811523Y181383715D01*
X53644857Y179717048D02*
X53644857Y182217048D01*
X53882952Y180669429D02*
X54597238Y179717048D01*
X54597238Y181383715D02*
X53644857Y180431334D01*
X17165238Y182217048D02*
X17998571Y179717048D01*
X18831904Y182217048D01*
X20974761Y182098000D02*
X20736666Y182217048D01*
X20379523Y182217048D01*
X20022380Y182098000D01*
X19784285Y181859905D01*
X19665238Y181621810D01*
X19546190Y181145620D01*
X19546190Y180788477D01*
X19665238Y180312286D01*
X19784285Y180074191D01*
X20022380Y179836096D01*
X20379523Y179717048D01*
X20617619Y179717048D01*
X20974761Y179836096D01*
X21093809Y179955143D01*
X21093809Y180788477D01*
X20617619Y180788477D01*
X22046190Y180431334D02*
X23236666Y180431334D01*
X21808095Y179717048D02*
X22641428Y182217048D01*
X23474761Y179717048D01*
D13*
%TO.C,Ref\u002A\u002A*%
G36*
X152534944Y190506266D02*
G01*
X152596280Y190468691D01*
X152627093Y190428875D01*
X152641721Y190388223D01*
X152663259Y190319204D01*
X152687844Y190234389D01*
X152696563Y190202893D01*
X152745938Y190022202D01*
X152865049Y190144685D01*
X152945793Y190219694D01*
X153011535Y190259663D01*
X153068842Y190265976D01*
X153124277Y190240021D01*
X153161607Y190207316D01*
X153187974Y190178354D01*
X153206029Y190147878D01*
X153218131Y190106572D01*
X153226640Y190045122D01*
X153233916Y189954212D01*
X153236824Y189910383D01*
X153252190Y189673301D01*
X153355884Y189628693D01*
X153447825Y189574196D01*
X153537105Y189495710D01*
X153612799Y189405065D01*
X153663982Y189314094D01*
X153674185Y189283984D01*
X153697564Y189196576D01*
X154064762Y189050934D01*
X154183053Y189002846D01*
X154289004Y188957569D01*
X154375746Y188918216D01*
X154436411Y188887897D01*
X154463730Y188870188D01*
X154495453Y188805534D01*
X154494591Y188723356D01*
X154464583Y188628368D01*
X154408870Y188525283D01*
X154330889Y188418812D01*
X154234079Y188313669D01*
X154121881Y188214567D01*
X153997733Y188126218D01*
X153868981Y188055173D01*
X153704928Y187994520D01*
X153522406Y187955344D01*
X153341479Y187941593D01*
X153296991Y187942678D01*
X153146232Y187949967D01*
X152951198Y187050109D01*
X152908886Y186857072D01*
X152867786Y186673681D01*
X152829046Y186504775D01*
X152793816Y186355194D01*
X152763246Y186229774D01*
X152738485Y186133357D01*
X152720684Y186070780D01*
X152714129Y186052197D01*
X152675309Y185979611D01*
X152627611Y185913503D01*
X152610130Y185894779D01*
X152548166Y185835414D01*
X152548166Y184949323D01*
X152548260Y184713625D01*
X152547937Y184516769D01*
X152546294Y184355265D01*
X152542425Y184225625D01*
X152535425Y184124360D01*
X152524389Y184047980D01*
X152508412Y183992997D01*
X152486590Y183955922D01*
X152458017Y183933265D01*
X152421789Y183921538D01*
X152377001Y183917252D01*
X152322747Y183916918D01*
X152280460Y183917167D01*
X152181808Y183921234D01*
X152115874Y183935985D01*
X152073601Y183965246D01*
X152045932Y184012841D01*
X152044331Y184016900D01*
X152036173Y184050305D01*
X152022511Y184120745D01*
X152004164Y184223394D01*
X151981951Y184353430D01*
X151956692Y184506027D01*
X151929206Y184676361D01*
X151900311Y184859609D01*
X151890530Y184922584D01*
X151862034Y185106390D01*
X151835521Y185276659D01*
X151811692Y185428961D01*
X151791243Y185558865D01*
X151774875Y185661939D01*
X151763285Y185733753D01*
X151757171Y185769877D01*
X151756424Y185773332D01*
X151735612Y185778029D01*
X151680182Y185788340D01*
X151597284Y185802993D01*
X151494066Y185820713D01*
X151425779Y185832217D01*
X151327506Y185848789D01*
X151194834Y185871352D01*
X151035075Y185898653D01*
X150855538Y185929439D01*
X150663533Y185962457D01*
X150466372Y185996454D01*
X150295878Y186025930D01*
X150090791Y186061299D01*
X149923453Y186089736D01*
X149789938Y186111735D01*
X149686318Y186127791D01*
X149608666Y186138400D01*
X149553055Y186144055D01*
X149515559Y186145252D01*
X149492249Y186142485D01*
X149479199Y186136249D01*
X149473731Y186129500D01*
X149443226Y186080662D01*
X149404140Y186029734D01*
X149353353Y185974005D01*
X149287748Y185910761D01*
X149204205Y185837290D01*
X149099606Y185750880D01*
X148970834Y185648816D01*
X148814768Y185528387D01*
X148628292Y185386881D01*
X148566635Y185340426D01*
X147856086Y184805769D01*
X147915924Y184483176D01*
X147945939Y184315416D01*
X147965245Y184184472D01*
X147972170Y184085804D01*
X147965042Y184014873D01*
X147942191Y183967137D01*
X147901945Y183938056D01*
X147842633Y183923089D01*
X147762584Y183917697D01*
X147707592Y183917167D01*
X147615965Y183918814D01*
X147556043Y183925104D01*
X147517279Y183938061D01*
X147489871Y183958962D01*
X147453879Y184008411D01*
X147437220Y184048920D01*
X147425000Y184107563D01*
X147407923Y184195650D01*
X147387201Y184306326D01*
X147364048Y184432736D01*
X147339677Y184568026D01*
X147315302Y184705340D01*
X147292137Y184837823D01*
X147271395Y184958621D01*
X147254289Y185060878D01*
X147242035Y185137739D01*
X147235844Y185182350D01*
X147235333Y185189278D01*
X147248636Y185227501D01*
X147287452Y185295625D01*
X147350141Y185391076D01*
X147435064Y185511275D01*
X147475427Y185566435D01*
X147715521Y185891700D01*
X147654388Y186037203D01*
X147566445Y186289550D01*
X147513704Y186541066D01*
X147496031Y186787380D01*
X147513293Y187024118D01*
X147565360Y187246910D01*
X147652097Y187451383D01*
X147699691Y187532075D01*
X147780437Y187657004D01*
X147676661Y187683601D01*
X147576222Y187717105D01*
X147454894Y187769324D01*
X147325725Y187833666D01*
X147201765Y187903542D01*
X147096060Y187972361D01*
X147076583Y187986681D01*
X146882717Y188155748D01*
X146707149Y188353466D01*
X146601191Y188502574D01*
X146540593Y188604401D01*
X146506826Y188682490D01*
X146498431Y188744591D01*
X146513944Y188798454D01*
X146538369Y188835563D01*
X146585054Y188877082D01*
X146646759Y188891042D01*
X146661324Y188891334D01*
X146726411Y188884631D01*
X146776029Y188859235D01*
X146821327Y188807210D01*
X146854669Y188753750D01*
X146998625Y188547001D01*
X147173782Y188365014D01*
X147374847Y188211153D01*
X147596524Y188088780D01*
X147833517Y188001257D01*
X148080533Y187951946D01*
X148124333Y187947502D01*
X148166760Y187946573D01*
X148245664Y187947635D01*
X148357131Y187950505D01*
X148497248Y187955000D01*
X148662099Y187960938D01*
X148847770Y187968136D01*
X149050348Y187976412D01*
X149265919Y187985582D01*
X149490567Y187995465D01*
X149720380Y188005877D01*
X149951442Y188016637D01*
X150179840Y188027562D01*
X150401660Y188038468D01*
X150612987Y188049174D01*
X150809907Y188059497D01*
X150988507Y188069255D01*
X151144871Y188078264D01*
X151275087Y188086342D01*
X151375239Y188093307D01*
X151441413Y188098975D01*
X151469696Y188103166D01*
X151470376Y188103580D01*
X151479749Y188125731D01*
X151502153Y188184157D01*
X151536278Y188275306D01*
X151580818Y188395620D01*
X151634465Y188541545D01*
X151695911Y188709526D01*
X151763850Y188896008D01*
X151836973Y189097436D01*
X151902532Y189278588D01*
X151994193Y189531902D01*
X152072910Y189748266D01*
X152140000Y189930586D01*
X152196779Y190081771D01*
X152244566Y190204728D01*
X152284676Y190302366D01*
X152318428Y190377592D01*
X152347138Y190433314D01*
X152372123Y190472441D01*
X152394700Y190497879D01*
X152416187Y190512537D01*
X152437901Y190519322D01*
X152461159Y190521142D01*
X152465358Y190521167D01*
X152534944Y190506266D01*
G37*
X152534944Y190506266D02*
X152596280Y190468691D01*
X152627093Y190428875D01*
X152641721Y190388223D01*
X152663259Y190319204D01*
X152687844Y190234389D01*
X152696563Y190202893D01*
X152745938Y190022202D01*
X152865049Y190144685D01*
X152945793Y190219694D01*
X153011535Y190259663D01*
X153068842Y190265976D01*
X153124277Y190240021D01*
X153161607Y190207316D01*
X153187974Y190178354D01*
X153206029Y190147878D01*
X153218131Y190106572D01*
X153226640Y190045122D01*
X153233916Y189954212D01*
X153236824Y189910383D01*
X153252190Y189673301D01*
X153355884Y189628693D01*
X153447825Y189574196D01*
X153537105Y189495710D01*
X153612799Y189405065D01*
X153663982Y189314094D01*
X153674185Y189283984D01*
X153697564Y189196576D01*
X154064762Y189050934D01*
X154183053Y189002846D01*
X154289004Y188957569D01*
X154375746Y188918216D01*
X154436411Y188887897D01*
X154463730Y188870188D01*
X154495453Y188805534D01*
X154494591Y188723356D01*
X154464583Y188628368D01*
X154408870Y188525283D01*
X154330889Y188418812D01*
X154234079Y188313669D01*
X154121881Y188214567D01*
X153997733Y188126218D01*
X153868981Y188055173D01*
X153704928Y187994520D01*
X153522406Y187955344D01*
X153341479Y187941593D01*
X153296991Y187942678D01*
X153146232Y187949967D01*
X152951198Y187050109D01*
X152908886Y186857072D01*
X152867786Y186673681D01*
X152829046Y186504775D01*
X152793816Y186355194D01*
X152763246Y186229774D01*
X152738485Y186133357D01*
X152720684Y186070780D01*
X152714129Y186052197D01*
X152675309Y185979611D01*
X152627611Y185913503D01*
X152610130Y185894779D01*
X152548166Y185835414D01*
X152548166Y184949323D01*
X152548260Y184713625D01*
X152547937Y184516769D01*
X152546294Y184355265D01*
X152542425Y184225625D01*
X152535425Y184124360D01*
X152524389Y184047980D01*
X152508412Y183992997D01*
X152486590Y183955922D01*
X152458017Y183933265D01*
X152421789Y183921538D01*
X152377001Y183917252D01*
X152322747Y183916918D01*
X152280460Y183917167D01*
X152181808Y183921234D01*
X152115874Y183935985D01*
X152073601Y183965246D01*
X152045932Y184012841D01*
X152044331Y184016900D01*
X152036173Y184050305D01*
X152022511Y184120745D01*
X152004164Y184223394D01*
X151981951Y184353430D01*
X151956692Y184506027D01*
X151929206Y184676361D01*
X151900311Y184859609D01*
X151890530Y184922584D01*
X151862034Y185106390D01*
X151835521Y185276659D01*
X151811692Y185428961D01*
X151791243Y185558865D01*
X151774875Y185661939D01*
X151763285Y185733753D01*
X151757171Y185769877D01*
X151756424Y185773332D01*
X151735612Y185778029D01*
X151680182Y185788340D01*
X151597284Y185802993D01*
X151494066Y185820713D01*
X151425779Y185832217D01*
X151327506Y185848789D01*
X151194834Y185871352D01*
X151035075Y185898653D01*
X150855538Y185929439D01*
X150663533Y185962457D01*
X150466372Y185996454D01*
X150295878Y186025930D01*
X150090791Y186061299D01*
X149923453Y186089736D01*
X149789938Y186111735D01*
X149686318Y186127791D01*
X149608666Y186138400D01*
X149553055Y186144055D01*
X149515559Y186145252D01*
X149492249Y186142485D01*
X149479199Y186136249D01*
X149473731Y186129500D01*
X149443226Y186080662D01*
X149404140Y186029734D01*
X149353353Y185974005D01*
X149287748Y185910761D01*
X149204205Y185837290D01*
X149099606Y185750880D01*
X148970834Y185648816D01*
X148814768Y185528387D01*
X148628292Y185386881D01*
X148566635Y185340426D01*
X147856086Y184805769D01*
X147915924Y184483176D01*
X147945939Y184315416D01*
X147965245Y184184472D01*
X147972170Y184085804D01*
X147965042Y184014873D01*
X147942191Y183967137D01*
X147901945Y183938056D01*
X147842633Y183923089D01*
X147762584Y183917697D01*
X147707592Y183917167D01*
X147615965Y183918814D01*
X147556043Y183925104D01*
X147517279Y183938061D01*
X147489871Y183958962D01*
X147453879Y184008411D01*
X147437220Y184048920D01*
X147425000Y184107563D01*
X147407923Y184195650D01*
X147387201Y184306326D01*
X147364048Y184432736D01*
X147339677Y184568026D01*
X147315302Y184705340D01*
X147292137Y184837823D01*
X147271395Y184958621D01*
X147254289Y185060878D01*
X147242035Y185137739D01*
X147235844Y185182350D01*
X147235333Y185189278D01*
X147248636Y185227501D01*
X147287452Y185295625D01*
X147350141Y185391076D01*
X147435064Y185511275D01*
X147475427Y185566435D01*
X147715521Y185891700D01*
X147654388Y186037203D01*
X147566445Y186289550D01*
X147513704Y186541066D01*
X147496031Y186787380D01*
X147513293Y187024118D01*
X147565360Y187246910D01*
X147652097Y187451383D01*
X147699691Y187532075D01*
X147780437Y187657004D01*
X147676661Y187683601D01*
X147576222Y187717105D01*
X147454894Y187769324D01*
X147325725Y187833666D01*
X147201765Y187903542D01*
X147096060Y187972361D01*
X147076583Y187986681D01*
X146882717Y188155748D01*
X146707149Y188353466D01*
X146601191Y188502574D01*
X146540593Y188604401D01*
X146506826Y188682490D01*
X146498431Y188744591D01*
X146513944Y188798454D01*
X146538369Y188835563D01*
X146585054Y188877082D01*
X146646759Y188891042D01*
X146661324Y188891334D01*
X146726411Y188884631D01*
X146776029Y188859235D01*
X146821327Y188807210D01*
X146854669Y188753750D01*
X146998625Y188547001D01*
X147173782Y188365014D01*
X147374847Y188211153D01*
X147596524Y188088780D01*
X147833517Y188001257D01*
X148080533Y187951946D01*
X148124333Y187947502D01*
X148166760Y187946573D01*
X148245664Y187947635D01*
X148357131Y187950505D01*
X148497248Y187955000D01*
X148662099Y187960938D01*
X148847770Y187968136D01*
X149050348Y187976412D01*
X149265919Y187985582D01*
X149490567Y187995465D01*
X149720380Y188005877D01*
X149951442Y188016637D01*
X150179840Y188027562D01*
X150401660Y188038468D01*
X150612987Y188049174D01*
X150809907Y188059497D01*
X150988507Y188069255D01*
X151144871Y188078264D01*
X151275087Y188086342D01*
X151375239Y188093307D01*
X151441413Y188098975D01*
X151469696Y188103166D01*
X151470376Y188103580D01*
X151479749Y188125731D01*
X151502153Y188184157D01*
X151536278Y188275306D01*
X151580818Y188395620D01*
X151634465Y188541545D01*
X151695911Y188709526D01*
X151763850Y188896008D01*
X151836973Y189097436D01*
X151902532Y189278588D01*
X151994193Y189531902D01*
X152072910Y189748266D01*
X152140000Y189930586D01*
X152196779Y190081771D01*
X152244566Y190204728D01*
X152284676Y190302366D01*
X152318428Y190377592D01*
X152347138Y190433314D01*
X152372123Y190472441D01*
X152394700Y190497879D01*
X152416187Y190512537D01*
X152437901Y190519322D01*
X152461159Y190521142D01*
X152465358Y190521167D01*
X152534944Y190506266D01*
G36*
X154296493Y198927047D02*
G01*
X154347678Y198880921D01*
X154382143Y198820971D01*
X154389666Y198780638D01*
X154373749Y198720922D01*
X154326102Y198633563D01*
X154246878Y198518766D01*
X154136233Y198376737D01*
X153994321Y198207680D01*
X153821297Y198011799D01*
X153747770Y197930754D01*
X153565301Y197730925D01*
X153618258Y197661495D01*
X153691331Y197545007D01*
X153755476Y197404285D01*
X153803115Y197257408D01*
X153819309Y197181892D01*
X153834402Y196970334D01*
X153811426Y196753995D01*
X153752305Y196541972D01*
X153658964Y196343360D01*
X153632784Y196300416D01*
X153556110Y196185279D01*
X153456639Y196043461D01*
X153338760Y195880728D01*
X153206863Y195702850D01*
X153065337Y195515594D01*
X152918572Y195324727D01*
X152770958Y195136019D01*
X152626883Y194955236D01*
X152490739Y194788147D01*
X152391857Y194669834D01*
X152197145Y194445570D01*
X151979147Y194204137D01*
X151745029Y193952924D01*
X151501959Y193699323D01*
X151257102Y193450723D01*
X151017626Y193214515D01*
X150790697Y192998089D01*
X150611416Y192833760D01*
X150416067Y192661730D01*
X150209662Y192485435D01*
X149996002Y192307769D01*
X149778890Y192131625D01*
X149562125Y191959899D01*
X149349509Y191795484D01*
X149144843Y191641275D01*
X148951928Y191500165D01*
X148774565Y191375050D01*
X148616556Y191268823D01*
X148481700Y191184378D01*
X148373800Y191124610D01*
X148354412Y191115226D01*
X148192461Y191045633D01*
X148043276Y190996755D01*
X147893226Y190965748D01*
X147728680Y190949764D01*
X147543555Y190945916D01*
X147410606Y190948629D01*
X147295887Y190955022D01*
X147207899Y190964468D01*
X147161250Y190974179D01*
X147007571Y191040368D01*
X146872763Y191132805D01*
X146763910Y191245217D01*
X146688094Y191371329D01*
X146674874Y191404998D01*
X146635880Y191572625D01*
X146627934Y191732876D01*
X147258743Y191732876D01*
X147274595Y191665140D01*
X147321109Y191615208D01*
X147347052Y191602632D01*
X147407058Y191592936D01*
X147462131Y191614799D01*
X147520933Y191672111D01*
X147531889Y191685615D01*
X147578813Y191766100D01*
X147592652Y191840921D01*
X147575350Y191902989D01*
X147528852Y191945211D01*
X147456495Y191960500D01*
X147400090Y191950083D01*
X147348191Y191913235D01*
X147322192Y191885681D01*
X147274344Y191809396D01*
X147258743Y191732876D01*
X146627934Y191732876D01*
X146626519Y191761408D01*
X146646052Y191963016D01*
X146680268Y192110906D01*
X148031790Y192110906D01*
X148059958Y192045254D01*
X148122247Y191989385D01*
X148145524Y191976408D01*
X148250230Y191943035D01*
X148352720Y191950901D01*
X148410223Y191972569D01*
X148473178Y192018762D01*
X148510404Y192079394D01*
X148516181Y192142762D01*
X148506620Y192169762D01*
X148453932Y192227115D01*
X148380694Y192251741D01*
X148333405Y192248907D01*
X148268680Y192246715D01*
X148219490Y192256869D01*
X148148675Y192263421D01*
X148084368Y192233921D01*
X148041670Y192178696D01*
X148031790Y192110906D01*
X146680268Y192110906D01*
X146693737Y192169120D01*
X146758681Y192348243D01*
X146828231Y192498673D01*
X146843581Y192526367D01*
X148969332Y192526367D01*
X148984830Y192462597D01*
X149003950Y192430877D01*
X149053764Y192391847D01*
X149124027Y192388729D01*
X149215729Y192421498D01*
X149223016Y192425155D01*
X149310405Y192477094D01*
X149380134Y192532684D01*
X149424535Y192584933D01*
X149436666Y192619940D01*
X149417646Y192695433D01*
X149366305Y192751641D01*
X149337632Y192766272D01*
X149302157Y192773840D01*
X149261373Y192766625D01*
X149204186Y192741410D01*
X149148691Y192711459D01*
X149049498Y192647377D01*
X148990300Y192586820D01*
X148969332Y192526367D01*
X146843581Y192526367D01*
X146901902Y192631587D01*
X146920494Y192658758D01*
X147531852Y192658758D01*
X147558085Y192601536D01*
X147568708Y192590960D01*
X147626426Y192553359D01*
X147683616Y192546961D01*
X147747939Y192573166D01*
X147827057Y192633375D01*
X147833970Y192639451D01*
X147890339Y192708867D01*
X147895358Y192726163D01*
X148215853Y192726163D01*
X148240554Y192666865D01*
X148278041Y192634769D01*
X148377727Y192594108D01*
X148470501Y192579965D01*
X148547249Y192592755D01*
X148589175Y192620658D01*
X148625225Y192686303D01*
X148628352Y192760102D01*
X148604666Y192815746D01*
X148562074Y192847680D01*
X148493376Y192874765D01*
X148414792Y192892939D01*
X148342543Y192898138D01*
X148302938Y192891335D01*
X148248330Y192851646D01*
X148218873Y192792173D01*
X148215853Y192726163D01*
X147895358Y192726163D01*
X147910599Y192778680D01*
X147897120Y192841001D01*
X147852270Y192887942D01*
X147778420Y192911614D01*
X147751800Y192913000D01*
X147678254Y192896759D01*
X147614309Y192854107D01*
X147565141Y192794151D01*
X147535930Y192725999D01*
X147531852Y192658758D01*
X146920494Y192658758D01*
X146984801Y192752738D01*
X147082036Y192867881D01*
X147198714Y192982768D01*
X147339943Y193103154D01*
X147447860Y193186284D01*
X148441927Y193186284D01*
X148461280Y193124310D01*
X148488876Y193094117D01*
X148540253Y193068103D01*
X148594271Y193065888D01*
X148661005Y193088976D01*
X148738060Y193131304D01*
X148832211Y193197348D01*
X148886437Y193259355D01*
X148902585Y193320165D01*
X148898387Y193336843D01*
X149944666Y193336843D01*
X149961419Y193284385D01*
X150002257Y193230209D01*
X150053054Y193190811D01*
X150077380Y193181883D01*
X150140120Y193172311D01*
X150192747Y193173334D01*
X150254888Y193186486D01*
X150299495Y193199225D01*
X150386870Y193237237D01*
X150453274Y193289670D01*
X150490221Y193348783D01*
X150495000Y193377530D01*
X150481330Y193417617D01*
X150450007Y193461312D01*
X150412764Y193492288D01*
X150369537Y193501401D01*
X150317715Y193496327D01*
X150239405Y193486907D01*
X150151464Y193479738D01*
X150128009Y193478483D01*
X150040497Y193460560D01*
X149977787Y193419044D01*
X149946772Y193359260D01*
X149944666Y193336843D01*
X148898387Y193336843D01*
X148890940Y193366425D01*
X148852284Y193417312D01*
X148810443Y193446842D01*
X148774464Y193458432D01*
X148737318Y193455054D01*
X148685883Y193433845D01*
X148639213Y193409488D01*
X148569978Y193369564D01*
X148511022Y193331161D01*
X148482581Y193309051D01*
X148448860Y193253549D01*
X148441927Y193186284D01*
X147447860Y193186284D01*
X147510831Y193234791D01*
X147610340Y193307600D01*
X148078756Y193656057D01*
X148144228Y193708044D01*
X149288500Y193708044D01*
X149306546Y193659965D01*
X149351179Y193612863D01*
X149408140Y193578841D01*
X149452147Y193569167D01*
X149490172Y193577201D01*
X149535937Y193604560D01*
X149596291Y193656132D01*
X149656838Y193715240D01*
X149732718Y193795803D01*
X149779071Y193855804D01*
X149781284Y193860596D01*
X150777330Y193860596D01*
X150798404Y193797158D01*
X150820093Y193771316D01*
X150867057Y193732912D01*
X150912319Y193720964D01*
X150966835Y193735969D01*
X151041560Y193778425D01*
X151046519Y193781595D01*
X151131477Y193849499D01*
X151176738Y193917834D01*
X151181384Y193984704D01*
X151163998Y194023790D01*
X151111312Y194078034D01*
X151047772Y194094289D01*
X150971315Y194072369D01*
X150879873Y194012089D01*
X150861140Y193996710D01*
X150798273Y193927282D01*
X150777330Y193860596D01*
X149781284Y193860596D01*
X149799791Y193900663D01*
X149801791Y193917024D01*
X149783040Y193987430D01*
X149733061Y194036809D01*
X149661269Y194055987D01*
X149659213Y194056000D01*
X149622715Y194050950D01*
X149584380Y194032180D01*
X149536617Y193994266D01*
X149471833Y193931781D01*
X149440243Y193899506D01*
X149376653Y193830687D01*
X149326168Y193769889D01*
X149295178Y193725172D01*
X149288500Y193708044D01*
X148144228Y193708044D01*
X148516640Y194003750D01*
X148934647Y194359703D01*
X149094657Y194505800D01*
X150726506Y194505800D01*
X150735679Y194441222D01*
X150784604Y194388070D01*
X150801916Y194377115D01*
X150857806Y194360968D01*
X150920638Y194376451D01*
X150995238Y194425585D01*
X151062066Y194485981D01*
X151143927Y194578531D01*
X151186193Y194657448D01*
X151189002Y194723710D01*
X151152493Y194778297D01*
X151107333Y194808193D01*
X151055187Y194824931D01*
X151002440Y194817185D01*
X150942597Y194781805D01*
X150869161Y194715639D01*
X150827708Y194672589D01*
X150757158Y194582643D01*
X150726506Y194505800D01*
X149094657Y194505800D01*
X149242831Y194641090D01*
X150011216Y194641090D01*
X150027146Y194602413D01*
X150059204Y194570831D01*
X150116001Y194532924D01*
X150168181Y194526727D01*
X150223880Y194554000D01*
X150291236Y194616506D01*
X150296563Y194622209D01*
X150365254Y194705259D01*
X150400368Y194773121D01*
X150404357Y194832829D01*
X150396400Y194853822D01*
X151576091Y194853822D01*
X151596910Y194790816D01*
X151620522Y194761156D01*
X151677041Y194720980D01*
X151738476Y194718892D01*
X151809077Y194755404D01*
X151849605Y194788714D01*
X151912059Y194860047D01*
X151933546Y194925917D01*
X151914568Y194989364D01*
X151888310Y195023011D01*
X151828621Y195064576D01*
X151763896Y195065812D01*
X151691932Y195026441D01*
X151654767Y194993621D01*
X151595200Y194920225D01*
X151576091Y194853822D01*
X150396400Y194853822D01*
X150386464Y194880034D01*
X150350144Y194921073D01*
X150292505Y194939297D01*
X150275425Y194941103D01*
X150224110Y194941041D01*
X150183444Y194925724D01*
X150138332Y194887788D01*
X150113035Y194861874D01*
X150052318Y194783032D01*
X150018522Y194706472D01*
X150016676Y194697977D01*
X150011216Y194641090D01*
X149242831Y194641090D01*
X149343431Y194732942D01*
X149693033Y195071950D01*
X149822030Y195202834D01*
X150557139Y195202834D01*
X150571069Y195144057D01*
X150610040Y195099943D01*
X150668330Y195076470D01*
X150740218Y195079614D01*
X150819981Y195115352D01*
X150833666Y195124917D01*
X150884535Y195158105D01*
X150924181Y195176515D01*
X150931828Y195177834D01*
X150966358Y195195941D01*
X150999445Y195239835D01*
X151020939Y195293875D01*
X151024131Y195319843D01*
X152167166Y195319843D01*
X152185795Y195263357D01*
X152232412Y195213322D01*
X152293116Y195182295D01*
X152324382Y195177834D01*
X152367748Y195183833D01*
X152410346Y195206221D01*
X152462380Y195251585D01*
X152502762Y195292983D01*
X152567739Y195367499D01*
X152601477Y195424838D01*
X152606224Y195473724D01*
X152584226Y195522881D01*
X152567797Y195545396D01*
X152519310Y195590510D01*
X152467205Y195602458D01*
X152406824Y195580086D01*
X152333511Y195522239D01*
X152286805Y195475739D01*
X152231117Y195413831D01*
X152189240Y195360565D01*
X152168304Y195325231D01*
X152167166Y195319843D01*
X151024131Y195319843D01*
X151024166Y195320127D01*
X151005013Y195382645D01*
X150954370Y195429465D01*
X150882462Y195452106D01*
X150864025Y195453000D01*
X150786701Y195444162D01*
X150717166Y195413297D01*
X150641699Y195353885D01*
X150627291Y195340475D01*
X150573973Y195270299D01*
X150557139Y195202834D01*
X149822030Y195202834D01*
X149993674Y195376987D01*
X150274186Y195674770D01*
X150530360Y195961000D01*
X151257000Y195961000D01*
X151269510Y195919549D01*
X151299723Y195870074D01*
X151300869Y195868605D01*
X151357055Y195822026D01*
X151422281Y195815167D01*
X151498212Y195848183D01*
X151555359Y195892209D01*
X151630588Y195959298D01*
X151679224Y196005904D01*
X151706975Y196038906D01*
X151707889Y196040818D01*
X152059820Y196040818D01*
X152066835Y195977452D01*
X152108376Y195930451D01*
X152168505Y195901298D01*
X152227478Y195903655D01*
X152292622Y195939551D01*
X152360690Y196000310D01*
X152429837Y196080928D01*
X152461191Y196148865D01*
X152455753Y196208380D01*
X152424056Y196253244D01*
X152757673Y196253244D01*
X152765210Y196189846D01*
X152806876Y196142117D01*
X152872097Y196112177D01*
X152937085Y196117824D01*
X153008184Y196160520D01*
X153050073Y196198241D01*
X153112888Y196271249D01*
X153137908Y196333250D01*
X153126103Y196390247D01*
X153088878Y196438213D01*
X153035829Y196478063D01*
X152983162Y196485225D01*
X152923177Y196458534D01*
X152854610Y196402805D01*
X152787714Y196325544D01*
X152757673Y196253244D01*
X152424056Y196253244D01*
X152421166Y196257334D01*
X152364031Y196294794D01*
X152301455Y196295320D01*
X152229725Y196258089D01*
X152162602Y196199921D01*
X152091858Y196115545D01*
X152059820Y196040818D01*
X151707889Y196040818D01*
X151719550Y196065185D01*
X151722656Y196091621D01*
X151722666Y196093874D01*
X151704894Y196166853D01*
X151657139Y196217201D01*
X151587742Y196236166D01*
X151587058Y196236167D01*
X151520796Y196221205D01*
X151445641Y196181932D01*
X151371691Y196126768D01*
X151309048Y196064133D01*
X151267811Y196002448D01*
X151257000Y195961000D01*
X150530360Y195961000D01*
X150540960Y195972843D01*
X150800393Y196278750D01*
X151058879Y196600035D01*
X151322812Y196944241D01*
X151366455Y197003536D01*
X152000537Y197003536D01*
X152019281Y196961875D01*
X152019830Y196960897D01*
X152070197Y196901132D01*
X152133426Y196867417D01*
X152190862Y196865695D01*
X152223762Y196887726D01*
X152269580Y196934824D01*
X152316075Y196993692D01*
X152372133Y197082883D01*
X152386622Y197124997D01*
X152807710Y197124997D01*
X152831418Y197080358D01*
X152848491Y197062492D01*
X152914351Y197024512D01*
X152984700Y197028565D01*
X153031785Y197053332D01*
X153091227Y197107807D01*
X153145803Y197179374D01*
X153186468Y197253921D01*
X153204173Y197317337D01*
X153204333Y197322468D01*
X153192888Y197382293D01*
X153169302Y197425125D01*
X153116343Y197456489D01*
X153051362Y197460990D01*
X152993745Y197438456D01*
X152981139Y197426792D01*
X152893892Y197322832D01*
X152837121Y197241222D01*
X152809002Y197176947D01*
X152807710Y197124997D01*
X152386622Y197124997D01*
X152396028Y197152336D01*
X152388809Y197208567D01*
X152357666Y197252167D01*
X152294499Y197290675D01*
X152225007Y197289869D01*
X152152903Y197251563D01*
X152081897Y197177571D01*
X152026413Y197090280D01*
X152002563Y197039442D01*
X152000537Y197003536D01*
X151366455Y197003536D01*
X151598588Y197318913D01*
X151603803Y197326126D01*
X151705562Y197464885D01*
X151789792Y197574211D01*
X151862096Y197660122D01*
X151928077Y197728639D01*
X151993337Y197785783D01*
X152063480Y197837575D01*
X152106232Y197865999D01*
X152245979Y197946070D01*
X152382177Y198000105D01*
X152527853Y198031674D01*
X152696032Y198044343D01*
X152759833Y198044981D01*
X152878326Y198043057D01*
X152967020Y198036953D01*
X153038373Y198025038D01*
X153104844Y198005681D01*
X153130250Y197996474D01*
X153198940Y197970995D01*
X153251927Y197952066D01*
X153275756Y197944360D01*
X153297212Y197957733D01*
X153341397Y197998477D01*
X153403766Y198061590D01*
X153479774Y198142069D01*
X153564874Y198234911D01*
X153654521Y198335113D01*
X153744168Y198437673D01*
X153829270Y198537588D01*
X153905280Y198629854D01*
X153950025Y198686410D01*
X154029700Y198787487D01*
X154090484Y198858857D01*
X154137875Y198905416D01*
X154177372Y198932059D01*
X154214474Y198943680D01*
X154241070Y198945500D01*
X154296493Y198927047D01*
G37*
X154296493Y198927047D02*
X154347678Y198880921D01*
X154382143Y198820971D01*
X154389666Y198780638D01*
X154373749Y198720922D01*
X154326102Y198633563D01*
X154246878Y198518766D01*
X154136233Y198376737D01*
X153994321Y198207680D01*
X153821297Y198011799D01*
X153747770Y197930754D01*
X153565301Y197730925D01*
X153618258Y197661495D01*
X153691331Y197545007D01*
X153755476Y197404285D01*
X153803115Y197257408D01*
X153819309Y197181892D01*
X153834402Y196970334D01*
X153811426Y196753995D01*
X153752305Y196541972D01*
X153658964Y196343360D01*
X153632784Y196300416D01*
X153556110Y196185279D01*
X153456639Y196043461D01*
X153338760Y195880728D01*
X153206863Y195702850D01*
X153065337Y195515594D01*
X152918572Y195324727D01*
X152770958Y195136019D01*
X152626883Y194955236D01*
X152490739Y194788147D01*
X152391857Y194669834D01*
X152197145Y194445570D01*
X151979147Y194204137D01*
X151745029Y193952924D01*
X151501959Y193699323D01*
X151257102Y193450723D01*
X151017626Y193214515D01*
X150790697Y192998089D01*
X150611416Y192833760D01*
X150416067Y192661730D01*
X150209662Y192485435D01*
X149996002Y192307769D01*
X149778890Y192131625D01*
X149562125Y191959899D01*
X149349509Y191795484D01*
X149144843Y191641275D01*
X148951928Y191500165D01*
X148774565Y191375050D01*
X148616556Y191268823D01*
X148481700Y191184378D01*
X148373800Y191124610D01*
X148354412Y191115226D01*
X148192461Y191045633D01*
X148043276Y190996755D01*
X147893226Y190965748D01*
X147728680Y190949764D01*
X147543555Y190945916D01*
X147410606Y190948629D01*
X147295887Y190955022D01*
X147207899Y190964468D01*
X147161250Y190974179D01*
X147007571Y191040368D01*
X146872763Y191132805D01*
X146763910Y191245217D01*
X146688094Y191371329D01*
X146674874Y191404998D01*
X146635880Y191572625D01*
X146627934Y191732876D01*
X147258743Y191732876D01*
X147274595Y191665140D01*
X147321109Y191615208D01*
X147347052Y191602632D01*
X147407058Y191592936D01*
X147462131Y191614799D01*
X147520933Y191672111D01*
X147531889Y191685615D01*
X147578813Y191766100D01*
X147592652Y191840921D01*
X147575350Y191902989D01*
X147528852Y191945211D01*
X147456495Y191960500D01*
X147400090Y191950083D01*
X147348191Y191913235D01*
X147322192Y191885681D01*
X147274344Y191809396D01*
X147258743Y191732876D01*
X146627934Y191732876D01*
X146626519Y191761408D01*
X146646052Y191963016D01*
X146680268Y192110906D01*
X148031790Y192110906D01*
X148059958Y192045254D01*
X148122247Y191989385D01*
X148145524Y191976408D01*
X148250230Y191943035D01*
X148352720Y191950901D01*
X148410223Y191972569D01*
X148473178Y192018762D01*
X148510404Y192079394D01*
X148516181Y192142762D01*
X148506620Y192169762D01*
X148453932Y192227115D01*
X148380694Y192251741D01*
X148333405Y192248907D01*
X148268680Y192246715D01*
X148219490Y192256869D01*
X148148675Y192263421D01*
X148084368Y192233921D01*
X148041670Y192178696D01*
X148031790Y192110906D01*
X146680268Y192110906D01*
X146693737Y192169120D01*
X146758681Y192348243D01*
X146828231Y192498673D01*
X146843581Y192526367D01*
X148969332Y192526367D01*
X148984830Y192462597D01*
X149003950Y192430877D01*
X149053764Y192391847D01*
X149124027Y192388729D01*
X149215729Y192421498D01*
X149223016Y192425155D01*
X149310405Y192477094D01*
X149380134Y192532684D01*
X149424535Y192584933D01*
X149436666Y192619940D01*
X149417646Y192695433D01*
X149366305Y192751641D01*
X149337632Y192766272D01*
X149302157Y192773840D01*
X149261373Y192766625D01*
X149204186Y192741410D01*
X149148691Y192711459D01*
X149049498Y192647377D01*
X148990300Y192586820D01*
X148969332Y192526367D01*
X146843581Y192526367D01*
X146901902Y192631587D01*
X146920494Y192658758D01*
X147531852Y192658758D01*
X147558085Y192601536D01*
X147568708Y192590960D01*
X147626426Y192553359D01*
X147683616Y192546961D01*
X147747939Y192573166D01*
X147827057Y192633375D01*
X147833970Y192639451D01*
X147890339Y192708867D01*
X147895358Y192726163D01*
X148215853Y192726163D01*
X148240554Y192666865D01*
X148278041Y192634769D01*
X148377727Y192594108D01*
X148470501Y192579965D01*
X148547249Y192592755D01*
X148589175Y192620658D01*
X148625225Y192686303D01*
X148628352Y192760102D01*
X148604666Y192815746D01*
X148562074Y192847680D01*
X148493376Y192874765D01*
X148414792Y192892939D01*
X148342543Y192898138D01*
X148302938Y192891335D01*
X148248330Y192851646D01*
X148218873Y192792173D01*
X148215853Y192726163D01*
X147895358Y192726163D01*
X147910599Y192778680D01*
X147897120Y192841001D01*
X147852270Y192887942D01*
X147778420Y192911614D01*
X147751800Y192913000D01*
X147678254Y192896759D01*
X147614309Y192854107D01*
X147565141Y192794151D01*
X147535930Y192725999D01*
X147531852Y192658758D01*
X146920494Y192658758D01*
X146984801Y192752738D01*
X147082036Y192867881D01*
X147198714Y192982768D01*
X147339943Y193103154D01*
X147447860Y193186284D01*
X148441927Y193186284D01*
X148461280Y193124310D01*
X148488876Y193094117D01*
X148540253Y193068103D01*
X148594271Y193065888D01*
X148661005Y193088976D01*
X148738060Y193131304D01*
X148832211Y193197348D01*
X148886437Y193259355D01*
X148902585Y193320165D01*
X148898387Y193336843D01*
X149944666Y193336843D01*
X149961419Y193284385D01*
X150002257Y193230209D01*
X150053054Y193190811D01*
X150077380Y193181883D01*
X150140120Y193172311D01*
X150192747Y193173334D01*
X150254888Y193186486D01*
X150299495Y193199225D01*
X150386870Y193237237D01*
X150453274Y193289670D01*
X150490221Y193348783D01*
X150495000Y193377530D01*
X150481330Y193417617D01*
X150450007Y193461312D01*
X150412764Y193492288D01*
X150369537Y193501401D01*
X150317715Y193496327D01*
X150239405Y193486907D01*
X150151464Y193479738D01*
X150128009Y193478483D01*
X150040497Y193460560D01*
X149977787Y193419044D01*
X149946772Y193359260D01*
X149944666Y193336843D01*
X148898387Y193336843D01*
X148890940Y193366425D01*
X148852284Y193417312D01*
X148810443Y193446842D01*
X148774464Y193458432D01*
X148737318Y193455054D01*
X148685883Y193433845D01*
X148639213Y193409488D01*
X148569978Y193369564D01*
X148511022Y193331161D01*
X148482581Y193309051D01*
X148448860Y193253549D01*
X148441927Y193186284D01*
X147447860Y193186284D01*
X147510831Y193234791D01*
X147610340Y193307600D01*
X148078756Y193656057D01*
X148144228Y193708044D01*
X149288500Y193708044D01*
X149306546Y193659965D01*
X149351179Y193612863D01*
X149408140Y193578841D01*
X149452147Y193569167D01*
X149490172Y193577201D01*
X149535937Y193604560D01*
X149596291Y193656132D01*
X149656838Y193715240D01*
X149732718Y193795803D01*
X149779071Y193855804D01*
X149781284Y193860596D01*
X150777330Y193860596D01*
X150798404Y193797158D01*
X150820093Y193771316D01*
X150867057Y193732912D01*
X150912319Y193720964D01*
X150966835Y193735969D01*
X151041560Y193778425D01*
X151046519Y193781595D01*
X151131477Y193849499D01*
X151176738Y193917834D01*
X151181384Y193984704D01*
X151163998Y194023790D01*
X151111312Y194078034D01*
X151047772Y194094289D01*
X150971315Y194072369D01*
X150879873Y194012089D01*
X150861140Y193996710D01*
X150798273Y193927282D01*
X150777330Y193860596D01*
X149781284Y193860596D01*
X149799791Y193900663D01*
X149801791Y193917024D01*
X149783040Y193987430D01*
X149733061Y194036809D01*
X149661269Y194055987D01*
X149659213Y194056000D01*
X149622715Y194050950D01*
X149584380Y194032180D01*
X149536617Y193994266D01*
X149471833Y193931781D01*
X149440243Y193899506D01*
X149376653Y193830687D01*
X149326168Y193769889D01*
X149295178Y193725172D01*
X149288500Y193708044D01*
X148144228Y193708044D01*
X148516640Y194003750D01*
X148934647Y194359703D01*
X149094657Y194505800D01*
X150726506Y194505800D01*
X150735679Y194441222D01*
X150784604Y194388070D01*
X150801916Y194377115D01*
X150857806Y194360968D01*
X150920638Y194376451D01*
X150995238Y194425585D01*
X151062066Y194485981D01*
X151143927Y194578531D01*
X151186193Y194657448D01*
X151189002Y194723710D01*
X151152493Y194778297D01*
X151107333Y194808193D01*
X151055187Y194824931D01*
X151002440Y194817185D01*
X150942597Y194781805D01*
X150869161Y194715639D01*
X150827708Y194672589D01*
X150757158Y194582643D01*
X150726506Y194505800D01*
X149094657Y194505800D01*
X149242831Y194641090D01*
X150011216Y194641090D01*
X150027146Y194602413D01*
X150059204Y194570831D01*
X150116001Y194532924D01*
X150168181Y194526727D01*
X150223880Y194554000D01*
X150291236Y194616506D01*
X150296563Y194622209D01*
X150365254Y194705259D01*
X150400368Y194773121D01*
X150404357Y194832829D01*
X150396400Y194853822D01*
X151576091Y194853822D01*
X151596910Y194790816D01*
X151620522Y194761156D01*
X151677041Y194720980D01*
X151738476Y194718892D01*
X151809077Y194755404D01*
X151849605Y194788714D01*
X151912059Y194860047D01*
X151933546Y194925917D01*
X151914568Y194989364D01*
X151888310Y195023011D01*
X151828621Y195064576D01*
X151763896Y195065812D01*
X151691932Y195026441D01*
X151654767Y194993621D01*
X151595200Y194920225D01*
X151576091Y194853822D01*
X150396400Y194853822D01*
X150386464Y194880034D01*
X150350144Y194921073D01*
X150292505Y194939297D01*
X150275425Y194941103D01*
X150224110Y194941041D01*
X150183444Y194925724D01*
X150138332Y194887788D01*
X150113035Y194861874D01*
X150052318Y194783032D01*
X150018522Y194706472D01*
X150016676Y194697977D01*
X150011216Y194641090D01*
X149242831Y194641090D01*
X149343431Y194732942D01*
X149693033Y195071950D01*
X149822030Y195202834D01*
X150557139Y195202834D01*
X150571069Y195144057D01*
X150610040Y195099943D01*
X150668330Y195076470D01*
X150740218Y195079614D01*
X150819981Y195115352D01*
X150833666Y195124917D01*
X150884535Y195158105D01*
X150924181Y195176515D01*
X150931828Y195177834D01*
X150966358Y195195941D01*
X150999445Y195239835D01*
X151020939Y195293875D01*
X151024131Y195319843D01*
X152167166Y195319843D01*
X152185795Y195263357D01*
X152232412Y195213322D01*
X152293116Y195182295D01*
X152324382Y195177834D01*
X152367748Y195183833D01*
X152410346Y195206221D01*
X152462380Y195251585D01*
X152502762Y195292983D01*
X152567739Y195367499D01*
X152601477Y195424838D01*
X152606224Y195473724D01*
X152584226Y195522881D01*
X152567797Y195545396D01*
X152519310Y195590510D01*
X152467205Y195602458D01*
X152406824Y195580086D01*
X152333511Y195522239D01*
X152286805Y195475739D01*
X152231117Y195413831D01*
X152189240Y195360565D01*
X152168304Y195325231D01*
X152167166Y195319843D01*
X151024131Y195319843D01*
X151024166Y195320127D01*
X151005013Y195382645D01*
X150954370Y195429465D01*
X150882462Y195452106D01*
X150864025Y195453000D01*
X150786701Y195444162D01*
X150717166Y195413297D01*
X150641699Y195353885D01*
X150627291Y195340475D01*
X150573973Y195270299D01*
X150557139Y195202834D01*
X149822030Y195202834D01*
X149993674Y195376987D01*
X150274186Y195674770D01*
X150530360Y195961000D01*
X151257000Y195961000D01*
X151269510Y195919549D01*
X151299723Y195870074D01*
X151300869Y195868605D01*
X151357055Y195822026D01*
X151422281Y195815167D01*
X151498212Y195848183D01*
X151555359Y195892209D01*
X151630588Y195959298D01*
X151679224Y196005904D01*
X151706975Y196038906D01*
X151707889Y196040818D01*
X152059820Y196040818D01*
X152066835Y195977452D01*
X152108376Y195930451D01*
X152168505Y195901298D01*
X152227478Y195903655D01*
X152292622Y195939551D01*
X152360690Y196000310D01*
X152429837Y196080928D01*
X152461191Y196148865D01*
X152455753Y196208380D01*
X152424056Y196253244D01*
X152757673Y196253244D01*
X152765210Y196189846D01*
X152806876Y196142117D01*
X152872097Y196112177D01*
X152937085Y196117824D01*
X153008184Y196160520D01*
X153050073Y196198241D01*
X153112888Y196271249D01*
X153137908Y196333250D01*
X153126103Y196390247D01*
X153088878Y196438213D01*
X153035829Y196478063D01*
X152983162Y196485225D01*
X152923177Y196458534D01*
X152854610Y196402805D01*
X152787714Y196325544D01*
X152757673Y196253244D01*
X152424056Y196253244D01*
X152421166Y196257334D01*
X152364031Y196294794D01*
X152301455Y196295320D01*
X152229725Y196258089D01*
X152162602Y196199921D01*
X152091858Y196115545D01*
X152059820Y196040818D01*
X151707889Y196040818D01*
X151719550Y196065185D01*
X151722656Y196091621D01*
X151722666Y196093874D01*
X151704894Y196166853D01*
X151657139Y196217201D01*
X151587742Y196236166D01*
X151587058Y196236167D01*
X151520796Y196221205D01*
X151445641Y196181932D01*
X151371691Y196126768D01*
X151309048Y196064133D01*
X151267811Y196002448D01*
X151257000Y195961000D01*
X150530360Y195961000D01*
X150540960Y195972843D01*
X150800393Y196278750D01*
X151058879Y196600035D01*
X151322812Y196944241D01*
X151366455Y197003536D01*
X152000537Y197003536D01*
X152019281Y196961875D01*
X152019830Y196960897D01*
X152070197Y196901132D01*
X152133426Y196867417D01*
X152190862Y196865695D01*
X152223762Y196887726D01*
X152269580Y196934824D01*
X152316075Y196993692D01*
X152372133Y197082883D01*
X152386622Y197124997D01*
X152807710Y197124997D01*
X152831418Y197080358D01*
X152848491Y197062492D01*
X152914351Y197024512D01*
X152984700Y197028565D01*
X153031785Y197053332D01*
X153091227Y197107807D01*
X153145803Y197179374D01*
X153186468Y197253921D01*
X153204173Y197317337D01*
X153204333Y197322468D01*
X153192888Y197382293D01*
X153169302Y197425125D01*
X153116343Y197456489D01*
X153051362Y197460990D01*
X152993745Y197438456D01*
X152981139Y197426792D01*
X152893892Y197322832D01*
X152837121Y197241222D01*
X152809002Y197176947D01*
X152807710Y197124997D01*
X152386622Y197124997D01*
X152396028Y197152336D01*
X152388809Y197208567D01*
X152357666Y197252167D01*
X152294499Y197290675D01*
X152225007Y197289869D01*
X152152903Y197251563D01*
X152081897Y197177571D01*
X152026413Y197090280D01*
X152002563Y197039442D01*
X152000537Y197003536D01*
X151366455Y197003536D01*
X151598588Y197318913D01*
X151603803Y197326126D01*
X151705562Y197464885D01*
X151789792Y197574211D01*
X151862096Y197660122D01*
X151928077Y197728639D01*
X151993337Y197785783D01*
X152063480Y197837575D01*
X152106232Y197865999D01*
X152245979Y197946070D01*
X152382177Y198000105D01*
X152527853Y198031674D01*
X152696032Y198044343D01*
X152759833Y198044981D01*
X152878326Y198043057D01*
X152967020Y198036953D01*
X153038373Y198025038D01*
X153104844Y198005681D01*
X153130250Y197996474D01*
X153198940Y197970995D01*
X153251927Y197952066D01*
X153275756Y197944360D01*
X153297212Y197957733D01*
X153341397Y197998477D01*
X153403766Y198061590D01*
X153479774Y198142069D01*
X153564874Y198234911D01*
X153654521Y198335113D01*
X153744168Y198437673D01*
X153829270Y198537588D01*
X153905280Y198629854D01*
X153950025Y198686410D01*
X154029700Y198787487D01*
X154090484Y198858857D01*
X154137875Y198905416D01*
X154177372Y198932059D01*
X154214474Y198943680D01*
X154241070Y198945500D01*
X154296493Y198927047D01*
%TD*%
M02*
