M48
; DRILL file {KiCad (5.1.10)-1} date 09/07/21 03:02:05
; FORMAT={-:-/ absolute / inch / decimal}
; #@! TF.CreationDate,2021-09-07T03:02:05-07:00
; #@! TF.GenerationSoftware,Kicad,Pcbnew,(5.1.10)-1
; #@! TF.FileFunction,Plated,1,2,PTH
FMAT,2
INCH
T1C0.0157
T2C0.0236
T3C0.0295
T4C0.0315
T5C0.0350
T6C0.0354
T7C0.0362
T8C0.0374
T9C0.0382
T10C0.0394
T11C0.0400
T12C0.0402
T13C0.0433
T14C0.0472
T15C0.0512
T16C0.0551
T17C0.0618
T18C0.0906
T19C0.0933
T20C0.1260
T21C0.1560
%
G90
G05
T1
X-0.045Y7.525
X0.165Y7.56
X0.195Y7.5847
X1.6Y2.4
X1.7Y2.8
X1.775Y2.5
X1.8Y2.8
X1.875Y2.55
X2.0Y2.6
X2.025Y2.85
X2.1Y2.925
X2.125Y6.825
X2.175Y2.7
X2.2Y3.025
X2.25Y3.225
X2.275Y2.75
X2.325Y3.225
X2.375Y2.8
X2.475Y2.9
X2.5Y2.95
X2.525Y3.0
X2.6Y3.725
X2.6Y3.1
X2.625Y3.15
X2.65Y3.2
X2.675Y7.725
X2.675Y7.625
X2.725Y3.3
X2.75Y4.075
X2.75Y3.4
X2.775Y3.45
X2.8Y3.5
X2.825Y8.0
X2.825Y3.55
X2.85Y3.6
X2.875Y7.25
X2.875Y3.65
X2.8875Y7.4
X2.9Y3.7
X2.925Y8.0
X2.925Y3.75
X2.95Y3.8
X2.975Y3.85
X2.975Y4.5
X3.0Y4.7
X3.0Y4.6
X3.0Y3.9
X3.025Y3.95
X3.05Y8.025
X3.05Y4.0
X3.075Y4.8
X3.075Y4.05
X3.075Y7.25
X3.1Y4.1
X3.125Y4.15
X3.15Y5.525
X3.15Y4.2
X3.175Y4.9
X3.175Y4.25
X3.2Y5.0
X3.2Y7.4
X3.2Y5.1
X3.2Y4.3
X3.225Y4.35
X3.25Y4.4
X3.275Y5.225
X3.275Y4.45
X3.3Y4.5
X3.325Y4.55
X3.35Y4.6
X3.375Y4.65
X3.4Y5.475
X3.4Y5.425
X3.4Y4.7
X3.425Y4.75
X3.45Y4.8
X3.475Y4.85
X3.5Y4.9
X3.525Y4.95
X3.55Y5.0
X3.575Y5.05
X3.6Y5.1
X3.625Y5.15
X3.65Y5.2
X3.675Y5.425
X3.675Y5.3
X3.7Y5.35
X4.15Y5.725
X4.15Y4.85
X4.175Y4.875
X4.2Y4.9
X4.2Y2.6
X4.4Y5.975
X4.55Y5.9756
X4.55Y5.85
X4.7Y5.975
X5.2Y2.85
X5.25Y5.9756
X5.35Y5.8744
X5.475Y2.525
X5.5Y2.925
X5.51Y3.925
X5.51Y3.7281
X5.51Y3.425
X5.51Y3.2281
X5.54Y4.125
X5.725Y2.625
X5.75Y2.725
X5.825Y3.2875
X5.85Y3.125
X5.875Y2.95
X5.875Y2.725
X5.875Y2.625
T2
X0.425Y0.85
X0.425Y0.05
X0.425Y-0.75
X0.5Y1.1
X0.5Y0.3
X0.5Y-0.5
X0.85Y1.1
X0.85Y0.3
X0.85Y-0.5
X1.45Y0.85
X1.45Y0.05
X1.45Y-0.75
X1.575Y2.7
X1.675Y2.6
X2.1Y2.675
X2.325Y2.975
X2.425Y3.35
X2.4375Y2.85
X2.4875Y3.1375
X2.5625Y3.05
X2.6875Y3.25
X3.4Y5.55
X3.45Y1.1
X3.45Y0.3
X3.45Y-0.5
X3.625Y5.25
X3.65Y1.1
X3.675Y5.55
X3.7Y0.3
X3.7Y-0.5
X3.875Y5.9756
X3.875Y5.75
X5.425Y4.9
X5.425Y4.6
X5.55Y1.1
X5.55Y0.3
X5.55Y-0.5
X5.625Y4.65
X5.8Y1.1
X5.8Y0.3
X5.8Y-0.5
X6.1882Y5.6803
T3
X2.275Y7.725
X2.275Y7.475
X2.325Y7.775
X2.325Y7.525
X2.375Y7.725
X2.375Y7.475
T4
X0.195Y3.055
X0.195Y2.9763
X0.195Y2.8975
X0.195Y2.8188
X0.195Y2.74
X0.2737Y3.055
X0.2737Y2.9763
X0.2737Y2.8975
X0.2737Y2.8188
X0.2737Y2.74
X0.3Y7.69
X0.3Y7.6113
X0.3Y7.5325
X0.3Y7.4538
X0.3Y7.375
X0.315Y6.58
X0.315Y6.5013
X0.315Y6.4225
X0.315Y6.3438
X0.34Y4.145
X0.34Y4.0663
X0.34Y3.9875
X0.34Y3.9088
X0.34Y3.83
X0.3787Y7.69
X0.3787Y7.6113
X0.3787Y7.5325
X0.3787Y7.4538
X0.3787Y7.375
X0.3937Y6.58
X0.3937Y6.5013
X0.3937Y6.4225
X0.3937Y6.3438
X0.4187Y4.145
X0.4187Y4.0663
X0.4187Y3.9875
X0.4187Y3.9088
X0.4187Y3.83
X0.6Y1.975
X0.6Y1.8766
X0.825Y5.975
X0.825Y5.8766
X1.2Y3.4
X1.2Y3.3016
X1.3Y3.4
X1.3Y3.1
X1.4Y3.4
X1.4Y3.1
X1.5Y3.4
X1.5Y3.1
X1.6Y3.4
X1.6Y3.1
X1.7Y3.4
X1.7Y3.1
X1.8Y6.95
X1.8Y6.8516
X1.8Y6.75
X1.8Y6.45
X1.8Y3.4
X1.8Y3.1
X1.9Y3.4
X1.9Y3.1
X1.95Y6.95
X1.95Y6.85
X1.95Y6.75
X1.95Y6.65
X1.95Y6.55
X1.95Y6.45
X1.95Y6.35
X2.0Y3.4
X2.0Y3.1
X2.1Y3.4
X2.1Y3.1
X2.1516Y7.1
X2.2Y3.4
X2.2Y3.1
X2.25Y7.1
X2.25Y6.95
X2.25Y6.85
X2.25Y6.75
X2.25Y6.65
X2.25Y6.55
X2.25Y6.45
X2.25Y6.35
X2.45Y6.65
X2.45Y6.5516
X2.45Y5.1
X2.45Y5.0
X2.45Y4.9
X2.45Y4.8
X2.45Y4.7
X2.45Y4.6
X2.45Y4.5
X2.45Y4.4
X2.45Y4.3
X2.45Y4.2
X2.55Y6.65
X2.55Y6.35
X2.55Y5.65
X2.55Y5.5516
X2.65Y6.65
X2.65Y6.35
X2.65Y5.65
X2.65Y5.35
X2.6516Y5.2
X2.75Y7.125
X2.75Y6.825
X2.75Y6.65
X2.75Y6.35
X2.75Y5.65
X2.75Y5.35
X2.75Y5.2
X2.75Y5.1
X2.75Y5.0
X2.75Y4.9
X2.75Y4.8
X2.75Y4.7
X2.75Y4.6
X2.75Y4.5
X2.75Y4.4
X2.75Y4.3
X2.75Y4.2
X2.85Y7.125
X2.85Y6.825
X2.85Y6.65
X2.85Y6.35
X2.85Y5.65
X2.85Y5.35
X2.95Y7.125
X2.95Y6.825
X2.95Y6.65
X2.95Y6.35
X2.95Y5.65
X2.95Y5.35
X3.05Y7.125
X3.05Y6.825
X3.05Y6.65
X3.05Y6.35
X3.05Y5.65
X3.05Y5.35
X3.15Y7.125
X3.15Y6.825
X3.15Y6.65
X3.15Y6.35
X3.15Y5.65
X3.15Y5.35
X3.25Y7.125
X3.25Y6.825
X3.25Y6.65
X3.25Y6.35
X3.25Y5.65
X3.25Y5.35
X3.35Y7.125
X3.35Y6.825
X3.35Y6.65
X3.35Y6.35
X3.35Y5.65
X3.35Y5.35
X3.45Y7.125
X3.45Y6.825
X3.45Y6.65
X3.45Y6.35
X4.05Y7.65
X4.05Y7.35
X4.35Y7.65
X4.35Y7.35
X4.6Y5.475
X4.6Y5.3766
X4.65Y7.65
X4.65Y7.35
X4.75Y5.475
X4.75Y5.3766
X4.95Y7.65
X4.95Y7.35
X5.0016Y5.425
X5.1Y5.425
X5.25Y7.65
X5.25Y7.35
X5.275Y2.875
X5.275Y2.775
X5.275Y2.675
X5.275Y2.575
X5.3Y2.45
X5.3Y2.15
X5.425Y2.45
X5.425Y2.15
X5.4766Y2.975
X5.5016Y6.0
X5.5016Y5.275
X5.5016Y4.925
X5.5213Y5.625
X5.55Y2.45
X5.55Y2.15
X5.575Y2.975
X5.575Y2.875
X5.575Y2.775
X5.575Y2.675
X5.575Y2.575
X5.6Y6.0
X5.6Y5.625
X5.6Y5.275
X5.6Y4.925
X5.7Y2.875
X5.7Y2.7766
X5.7Y2.6734
X5.7Y2.575
X5.975Y3.775
X5.975Y3.475
X5.975Y0.9984
X5.975Y0.9
X6.025Y2.4
X6.025Y2.1
X6.175Y2.4
X6.175Y2.1
T5
X-0.125Y6.565
X-0.125Y6.485
X-0.125Y6.405
X-0.125Y6.325
X-0.0549Y6.605
X-0.0549Y6.525
X-0.0549Y6.445
X-0.0549Y6.365
X0.1348Y6.7352
X0.1348Y6.6451
X0.1348Y6.2852
X0.1348Y6.1951
T6
X4.0Y7.875
X4.1Y7.875
X4.3Y7.875
X4.4Y7.875
X4.6Y7.875
X4.7Y7.875
X4.9Y7.875
X5.0Y7.875
X5.2Y7.875
X5.3Y7.875
X6.1Y3.875
X6.1Y3.775
T7
X0.0669Y4.125
X0.0669Y4.0266
X0.0669Y3.9478
X0.0669Y3.8494
X0.17Y4.125
X0.17Y4.0266
X0.17Y3.9478
X0.17Y3.8494
T8
X0.28Y5.825
X0.28Y5.7266
X0.28Y5.6281
X0.28Y5.5297
X0.28Y5.4313
T9
X-0.11Y5.7557
X-0.11Y5.675
X-0.11Y5.5726
X-0.11Y5.4919
X-0.11Y4.9307
X-0.11Y4.85
X-0.11Y4.7476
X-0.11Y4.6669
X-0.012Y5.7557
X-0.012Y5.4919
X-0.012Y4.9307
X-0.012Y4.6669
T10
X-0.1268Y3.0455
X-0.1268Y2.9364
X-0.1268Y2.8274
X-0.1268Y2.7183
X-0.095Y7.7356
X-0.095Y7.6455
X-0.095Y7.5553
X-0.095Y7.4652
X-0.095Y7.375
X-0.015Y3.1
X-0.015Y2.9909
X-0.015Y2.8819
X-0.015Y2.7728
X-0.015Y2.6638
X0.005Y7.6906
X0.005Y7.6004
X0.005Y7.5102
X0.005Y7.4201
X0.005Y7.3299
X0.105Y7.7356
X0.105Y7.6455
X0.105Y7.5553
X0.105Y7.4652
X0.105Y7.375
X0.28Y5.0
X0.28Y4.9
X0.28Y4.8
X0.28Y4.7
X0.28Y4.6
X0.315Y6.99
X0.415Y6.99
X0.515Y6.99
X0.615Y6.99
X2.65Y7.925
X2.65Y7.325
X2.75Y7.925
X2.75Y7.325
X2.85Y7.925
X2.85Y7.325
X2.95Y7.925
X2.95Y7.325
X3.05Y7.925
X3.05Y7.325
X3.15Y7.925
X3.15Y7.325
X3.25Y7.925
X3.25Y7.325
X3.35Y7.925
X3.35Y7.325
X3.45Y7.925
X3.45Y7.325
X3.775Y5.55
X3.775Y5.45
X3.775Y5.35
X3.775Y5.25
X3.775Y5.15
X3.775Y5.05
X3.775Y4.95
X3.775Y4.85
X3.775Y4.75
X3.775Y4.65
X3.775Y4.55
X3.775Y4.45
X3.775Y4.35
X3.775Y4.25
X3.775Y4.15
X3.775Y4.05
X3.775Y3.95
X3.775Y3.85
X3.775Y3.75
X3.775Y3.65
X3.775Y3.55
X3.775Y3.45
X3.775Y3.35
X3.775Y3.25
X3.775Y3.15
X3.775Y3.05
X3.775Y2.95
X3.775Y2.85
X3.775Y2.75
X3.775Y2.65
X3.775Y2.55
X3.775Y2.45
X3.875Y5.55
X3.875Y5.45
X3.875Y5.35
X3.875Y5.25
X3.875Y5.15
X3.875Y5.05
X3.875Y4.95
X3.875Y4.85
X3.875Y4.75
X3.875Y4.65
X3.875Y4.55
X3.875Y4.45
X3.875Y4.35
X3.875Y4.25
X3.875Y4.15
X3.875Y4.05
X3.875Y3.95
X3.875Y3.85
X3.875Y3.75
X3.875Y3.65
X3.875Y3.55
X3.875Y3.45
X3.875Y3.35
X3.875Y3.25
X3.875Y3.15
X3.875Y3.05
X3.875Y2.95
X3.875Y2.85
X3.875Y2.75
X3.875Y2.65
X3.875Y2.55
X3.875Y2.45
X3.975Y5.15
X3.975Y5.05
X3.975Y4.95
X3.975Y4.85
X3.975Y4.75
X3.975Y4.65
X3.975Y4.55
X3.975Y4.45
X3.975Y4.35
X3.975Y4.25
X3.975Y4.15
X3.975Y4.05
X3.975Y3.95
X3.975Y3.85
X3.975Y3.75
X3.975Y3.65
X3.975Y3.55
X3.975Y3.45
X3.975Y3.35
X3.975Y3.25
X4.075Y5.15
X4.075Y5.05
X4.075Y4.95
X4.075Y4.85
X4.075Y4.75
X4.075Y4.65
X4.075Y4.55
X4.075Y4.45
X4.075Y4.35
X4.075Y4.25
X4.075Y4.15
X4.075Y4.05
X4.075Y3.95
X4.075Y3.85
X4.075Y3.75
X4.075Y3.65
X4.075Y3.55
X4.075Y3.45
X4.075Y3.35
X4.075Y3.25
X4.25Y7.15
X4.45Y7.15
X4.65Y7.15
X4.65Y6.85
X4.85Y7.15
X5.05Y7.15
X5.55Y4.525
X5.55Y4.425
X5.55Y4.325
X6.05Y2.975
X6.05Y2.875
X6.05Y2.775
X6.05Y2.675
X6.05Y2.575
X6.15Y3.325
X6.15Y3.225
X6.15Y2.975
X6.15Y2.875
X6.15Y2.775
X6.15Y2.675
T11
X0.6Y1.4
X0.6Y1.2
X0.6Y0.6
X0.6Y0.4
X0.6Y-0.2
X0.6Y-0.4
X0.6Y-1.0
X0.6Y-1.2
X0.7Y1.4
X0.7Y1.2
X0.7Y0.6
X0.7Y0.4
X0.7Y-0.2
X0.7Y-0.4
X0.7Y-1.0
X0.7Y-1.2
X0.8Y1.4
X0.8Y1.2
X0.8Y0.6
X0.8Y0.4
X0.8Y-0.2
X0.8Y-0.4
X0.8Y-1.0
X0.8Y-1.2
X0.9Y1.4
X0.9Y1.2
X0.9Y0.6
X0.9Y0.4
X0.9Y-0.2
X0.9Y-0.4
X0.9Y-1.0
X0.9Y-1.2
X1.0Y1.4
X1.0Y1.2
X1.0Y0.6
X1.0Y0.4
X1.0Y-0.2
X1.0Y-0.4
X1.0Y-1.0
X1.0Y-1.2
X1.1Y1.4
X1.1Y1.2
X1.1Y0.6
X1.1Y0.4
X1.1Y-0.2
X1.1Y-0.4
X1.1Y-1.0
X1.1Y-1.2
X1.2Y1.4
X1.2Y1.2
X1.2Y0.6
X1.2Y0.4
X1.2Y-0.2
X1.2Y-0.4
X1.2Y-1.0
X1.2Y-1.2
X1.3Y1.4
X1.3Y1.2
X1.3Y0.6
X1.3Y0.4
X1.3Y-0.2
X1.3Y-0.4
X1.3Y-1.0
X1.3Y-1.2
X1.4Y1.4
X1.4Y1.2
X1.4Y0.6
X1.4Y0.4
X1.4Y-0.2
X1.4Y-0.4
X1.4Y-1.0
X1.4Y-1.2
X1.5Y1.4
X1.5Y1.2
X1.5Y0.6
X1.5Y0.4
X1.5Y-0.2
X1.5Y-0.4
X1.5Y-1.0
X1.5Y-1.2
X1.6Y1.4
X1.6Y1.2
X1.6Y0.6
X1.6Y0.4
X1.6Y-0.2
X1.6Y-0.4
X1.6Y-1.0
X1.6Y-1.2
X1.7Y1.4
X1.7Y1.2
X1.7Y0.6
X1.7Y0.4
X1.7Y-0.2
X1.7Y-0.4
X1.7Y-1.0
X1.7Y-1.2
X1.8Y1.4
X1.8Y1.2
X1.8Y0.6
X1.8Y0.4
X1.8Y-0.2
X1.8Y-0.4
X1.8Y-1.0
X1.8Y-1.2
X1.9Y1.4
X1.9Y1.2
X1.9Y0.6
X1.9Y0.4
X1.9Y-0.2
X1.9Y-0.4
X1.9Y-1.0
X1.9Y-1.2
X2.0Y1.4
X2.0Y1.2
X2.0Y0.6
X2.0Y0.4
X2.0Y-0.2
X2.0Y-0.4
X2.0Y-1.0
X2.0Y-1.2
X2.1Y1.4
X2.1Y1.2
X2.1Y0.6
X2.1Y0.4
X2.1Y-0.2
X2.1Y-0.4
X2.1Y-1.0
X2.1Y-1.2
X2.2Y1.4
X2.2Y1.2
X2.2Y0.6
X2.2Y0.4
X2.2Y-0.2
X2.2Y-0.4
X2.2Y-1.0
X2.2Y-1.2
X2.3Y1.4
X2.3Y1.2
X2.3Y0.6
X2.3Y0.4
X2.3Y-0.2
X2.3Y-0.4
X2.3Y-1.0
X2.3Y-1.2
X2.4Y1.4
X2.4Y1.2
X2.4Y0.6
X2.4Y0.4
X2.4Y-0.2
X2.4Y-0.4
X2.4Y-1.0
X2.4Y-1.2
X2.5Y1.4
X2.5Y1.2
X2.5Y0.6
X2.5Y0.4
X2.5Y-0.2
X2.5Y-0.4
X2.5Y-1.0
X2.5Y-1.2
X2.6Y1.4
X2.6Y1.2
X2.6Y0.6
X2.6Y0.4
X2.6Y-0.2
X2.6Y-0.4
X2.6Y-1.0
X2.6Y-1.2
X2.7Y1.4
X2.7Y1.2
X2.7Y0.6
X2.7Y0.4
X2.7Y-0.2
X2.7Y-0.4
X2.7Y-1.0
X2.7Y-1.2
X2.8Y1.4
X2.8Y1.2
X2.8Y0.6
X2.8Y0.4
X2.8Y-0.2
X2.8Y-0.4
X2.8Y-1.0
X2.8Y-1.2
X2.9Y1.4
X2.9Y1.2
X2.9Y0.6
X2.9Y0.4
X2.9Y-0.2
X2.9Y-0.4
X2.9Y-1.0
X2.9Y-1.2
X3.0Y1.4
X3.0Y1.2
X3.0Y0.6
X3.0Y0.4
X3.0Y-0.2
X3.0Y-0.4
X3.0Y-1.0
X3.0Y-1.2
X3.1Y1.4
X3.1Y1.2
X3.1Y0.6
X3.1Y0.4
X3.1Y-0.2
X3.1Y-0.4
X3.1Y-1.0
X3.1Y-1.2
X3.2Y1.4
X3.2Y1.2
X3.2Y0.6
X3.2Y0.4
X3.2Y-0.2
X3.2Y-0.4
X3.2Y-1.0
X3.2Y-1.2
X3.3Y1.4
X3.3Y1.2
X3.3Y0.6
X3.3Y0.4
X3.3Y-0.2
X3.3Y-0.4
X3.3Y-1.0
X3.3Y-1.2
X3.4Y1.4
X3.4Y1.2
X3.4Y0.6
X3.4Y0.4
X3.4Y-0.2
X3.4Y-0.4
X3.4Y-1.0
X3.4Y-1.2
X3.5Y1.4
X3.5Y1.2
X3.5Y0.6
X3.5Y0.4
X3.5Y-0.2
X3.5Y-0.4
X3.5Y-1.0
X3.5Y-1.2
X3.6Y1.4
X3.6Y1.2
X3.6Y0.6
X3.6Y0.4
X3.6Y-0.2
X3.6Y-0.4
X3.6Y-1.0
X3.6Y-1.2
X4.0Y1.4
X4.0Y1.2
X4.0Y0.6
X4.0Y0.4
X4.0Y-0.2
X4.0Y-0.4
X4.0Y-1.0
X4.0Y-1.2
X4.1Y1.4
X4.1Y1.2
X4.1Y0.6
X4.1Y0.4
X4.1Y-0.2
X4.1Y-0.4
X4.1Y-1.0
X4.1Y-1.2
X4.2Y1.4
X4.2Y1.2
X4.2Y0.6
X4.2Y0.4
X4.2Y-0.2
X4.2Y-0.4
X4.2Y-1.0
X4.2Y-1.2
X4.3Y1.4
X4.3Y1.2
X4.3Y0.6
X4.3Y0.4
X4.3Y-0.2
X4.3Y-0.4
X4.3Y-1.0
X4.3Y-1.2
X4.4Y1.4
X4.4Y1.2
X4.4Y0.6
X4.4Y0.4
X4.4Y-0.2
X4.4Y-0.4
X4.4Y-1.0
X4.4Y-1.2
X4.5Y1.4
X4.5Y1.2
X4.5Y0.6
X4.5Y0.4
X4.5Y-0.2
X4.5Y-0.4
X4.5Y-1.0
X4.5Y-1.2
X4.6Y1.4
X4.6Y1.2
X4.6Y0.6
X4.6Y0.4
X4.6Y-0.2
X4.6Y-0.4
X4.6Y-1.0
X4.6Y-1.2
X4.7Y1.4
X4.7Y1.2
X4.7Y0.6
X4.7Y0.4
X4.7Y-0.2
X4.7Y-0.4
X4.7Y-1.0
X4.7Y-1.2
X4.8Y1.4
X4.8Y1.2
X4.8Y0.6
X4.8Y0.4
X4.8Y-0.2
X4.8Y-0.4
X4.8Y-1.0
X4.8Y-1.2
X4.9Y1.4
X4.9Y1.2
X4.9Y0.6
X4.9Y0.4
X4.9Y-0.2
X4.9Y-0.4
X4.9Y-1.0
X4.9Y-1.2
X5.0Y1.4
X5.0Y1.2
X5.0Y0.6
X5.0Y0.4
X5.0Y-0.2
X5.0Y-0.4
X5.0Y-1.0
X5.0Y-1.2
X5.1Y1.4
X5.1Y1.2
X5.1Y0.6
X5.1Y0.4
X5.1Y-0.2
X5.1Y-0.4
X5.1Y-1.0
X5.1Y-1.2
X5.2Y1.4
X5.2Y1.2
X5.2Y0.6
X5.2Y0.4
X5.2Y-0.2
X5.2Y-0.4
X5.2Y-1.0
X5.2Y-1.2
X5.3Y1.4
X5.3Y1.2
X5.3Y0.6
X5.3Y0.4
X5.3Y-0.2
X5.3Y-0.4
X5.3Y-1.0
X5.3Y-1.2
X5.4Y1.4
X5.4Y1.2
X5.4Y0.6
X5.4Y0.4
X5.4Y-0.2
X5.4Y-0.4
X5.4Y-1.0
X5.4Y-1.2
X5.5Y1.4
X5.5Y1.2
X5.5Y0.6
X5.5Y0.4
X5.5Y-0.2
X5.5Y-0.4
X5.5Y-1.0
X5.5Y-1.2
X5.6Y1.4
X5.6Y1.2
X5.6Y0.6
X5.6Y0.4
X5.6Y-0.2
X5.6Y-0.4
X5.6Y-1.0
X5.6Y-1.2
X5.7Y1.4
X5.7Y1.2
X5.7Y0.6
X5.7Y0.4
X5.7Y-0.2
X5.7Y-0.4
X5.7Y-1.0
X5.7Y-1.2
T12
X0.4Y2.075
X0.4Y1.975
X0.4Y1.875
X0.625Y6.075
X0.625Y5.975
X0.625Y5.875
X6.175Y1.0
X6.175Y0.9
X6.175Y0.8
T13
X4.575Y5.625
X4.675Y5.625
X4.775Y5.625
T14
X5.7Y7.725
X5.7Y6.725
X6.1Y7.725
X6.1Y6.725
T15
X5.2Y3.925
X5.2Y3.7281
X5.2Y3.425
X5.2Y3.2281
X5.6921Y3.925
X5.6921Y3.7281
X5.6921Y3.425
X5.6921Y3.2281
T16
X5.9Y6.0939
X5.9Y5.9285
X5.9Y5.7632
X5.9Y5.5978
X5.9Y5.4325
X5.9Y5.2671
X5.9Y5.1018
X5.9Y4.9364
X5.9Y4.7711
X5.9Y4.6057
X5.9Y4.4404
X5.9Y4.275
X6.1165Y6.0939
X6.1165Y5.9285
X6.1165Y5.7632
X6.1165Y5.5978
X6.1165Y5.4325
X6.1165Y5.2671
X6.1165Y5.1018
X6.1165Y4.9364
X6.1165Y4.7711
X6.1165Y4.6057
X6.1165Y4.4404
X6.1165Y4.275
T17
X-0.09Y6.7852
X-0.09Y6.1451
T18
X-0.0398Y4.2459
X-0.0398Y3.7285
X0.1838Y4.2459
X0.1838Y3.7285
T19
X-0.26Y5.6238
X-0.26Y4.7988
X-0.2281Y5.89
X-0.2281Y5.3577
X-0.2281Y5.065
X-0.2281Y4.5327
T20
X-0.0709Y3.374
X-0.0709Y2.3898
X0.0066Y8.037
X0.0066Y7.0528
X0.7Y5.45
X0.7Y2.55
X4.075Y5.55
X4.075Y2.4
T21
X0.0Y1.8
X0.0Y0.0
X0.9Y8.0
X6.1Y8.0
X6.1Y1.8
X6.1Y0.0
X6.1Y-0.8
T0
M30
