%TF.GenerationSoftware,KiCad,Pcbnew,(5.1.10)-1*%
%TF.CreationDate,2021-09-11T02:50:14-07:00*%
%TF.ProjectId,matx-pc104,6d617478-2d70-4633-9130-342e6b696361,rev?*%
%TF.SameCoordinates,PX18392c0PYda028c0*%
%TF.FileFunction,Legend,Bot*%
%TF.FilePolarity,Positive*%
%FSLAX46Y46*%
G04 Gerber Fmt 4.6, Leading zero omitted, Abs format (unit mm)*
G04 Created by KiCad (PCBNEW (5.1.10)-1) date 2021-09-11 02:50:14*
%MOMM*%
%LPD*%
G01*
G04 APERTURE LIST*
%ADD10C,0.300000*%
%ADD11C,0.010000*%
G04 APERTURE END LIST*
D10*
X132298571Y205061429D02*
X132298571Y206561429D01*
X131727142Y206561429D01*
X131584285Y206490000D01*
X131512857Y206418572D01*
X131441428Y206275715D01*
X131441428Y206061429D01*
X131512857Y205918572D01*
X131584285Y205847143D01*
X131727142Y205775715D01*
X132298571Y205775715D01*
X130798571Y205061429D02*
X130798571Y206561429D01*
X130441428Y206561429D01*
X130227142Y206490000D01*
X130084285Y206347143D01*
X130012857Y206204286D01*
X129941428Y205918572D01*
X129941428Y205704286D01*
X130012857Y205418572D01*
X130084285Y205275715D01*
X130227142Y205132858D01*
X130441428Y205061429D01*
X130798571Y205061429D01*
X129441428Y206561429D02*
X128512857Y206561429D01*
X129012857Y205990000D01*
X128798571Y205990000D01*
X128655714Y205918572D01*
X128584285Y205847143D01*
X128512857Y205704286D01*
X128512857Y205347143D01*
X128584285Y205204286D01*
X128655714Y205132858D01*
X128798571Y205061429D01*
X129227142Y205061429D01*
X129370000Y205132858D01*
X129441428Y205204286D01*
X127584285Y206561429D02*
X127441428Y206561429D01*
X127298571Y206490000D01*
X127227142Y206418572D01*
X127155714Y206275715D01*
X127084285Y205990000D01*
X127084285Y205632858D01*
X127155714Y205347143D01*
X127227142Y205204286D01*
X127298571Y205132858D01*
X127441428Y205061429D01*
X127584285Y205061429D01*
X127727142Y205132858D01*
X127798571Y205204286D01*
X127870000Y205347143D01*
X127941428Y205632858D01*
X127941428Y205990000D01*
X127870000Y206275715D01*
X127798571Y206418572D01*
X127727142Y206490000D01*
X127584285Y206561429D01*
X125655714Y205061429D02*
X126512857Y205061429D01*
X126084285Y205061429D02*
X126084285Y206561429D01*
X126227142Y206347143D01*
X126370000Y206204286D01*
X126512857Y206132858D01*
X123084285Y205061429D02*
X123941428Y205061429D01*
X123512857Y205061429D02*
X123512857Y206561429D01*
X123655714Y206347143D01*
X123798571Y206204286D01*
X123941428Y206132858D01*
X122441428Y205204286D02*
X122370000Y205132858D01*
X122441428Y205061429D01*
X122512857Y205132858D01*
X122441428Y205204286D01*
X122441428Y205061429D01*
X121441428Y206561429D02*
X121298571Y206561429D01*
X121155714Y206490000D01*
X121084285Y206418572D01*
X121012857Y206275715D01*
X120941428Y205990000D01*
X120941428Y205632858D01*
X121012857Y205347143D01*
X121084285Y205204286D01*
X121155714Y205132858D01*
X121298571Y205061429D01*
X121441428Y205061429D01*
X121584285Y205132858D01*
X121655714Y205204286D01*
X121727142Y205347143D01*
X121798571Y205632858D01*
X121798571Y205990000D01*
X121727142Y206275715D01*
X121655714Y206418572D01*
X121584285Y206490000D01*
X121441428Y206561429D01*
X115727142Y205061429D02*
X115727142Y206061429D01*
X115727142Y205918572D02*
X115655714Y205990000D01*
X115512857Y206061429D01*
X115298571Y206061429D01*
X115155714Y205990000D01*
X115084285Y205847143D01*
X115084285Y205061429D01*
X115084285Y205847143D02*
X115012857Y205990000D01*
X114870000Y206061429D01*
X114655714Y206061429D01*
X114512857Y205990000D01*
X114441428Y205847143D01*
X114441428Y205061429D01*
X113798571Y205490000D02*
X113084285Y205490000D01*
X113941428Y205061429D02*
X113441428Y206561429D01*
X112941428Y205061429D01*
X112655714Y206561429D02*
X111798571Y206561429D01*
X112227142Y205061429D02*
X112227142Y206561429D01*
X111441428Y206561429D02*
X110441428Y205061429D01*
X110441428Y206561429D02*
X111441428Y205061429D01*
X108084285Y205132858D02*
X108227142Y205061429D01*
X108512857Y205061429D01*
X108655714Y205132858D01*
X108727142Y205204286D01*
X108798571Y205347143D01*
X108798571Y205775715D01*
X108727142Y205918572D01*
X108655714Y205990000D01*
X108512857Y206061429D01*
X108227142Y206061429D01*
X108084285Y205990000D01*
X106798571Y205061429D02*
X106798571Y205847143D01*
X106870000Y205990000D01*
X107012857Y206061429D01*
X107298571Y206061429D01*
X107441428Y205990000D01*
X106798571Y205132858D02*
X106941428Y205061429D01*
X107298571Y205061429D01*
X107441428Y205132858D01*
X107512857Y205275715D01*
X107512857Y205418572D01*
X107441428Y205561429D01*
X107298571Y205632858D01*
X106941428Y205632858D01*
X106798571Y205704286D01*
X106084285Y205061429D02*
X106084285Y206061429D01*
X106084285Y205775715D02*
X106012857Y205918572D01*
X105941428Y205990000D01*
X105798571Y206061429D01*
X105655714Y206061429D01*
X105155714Y205061429D02*
X105155714Y206061429D01*
X105155714Y205775715D02*
X105084285Y205918572D01*
X105012857Y205990000D01*
X104870000Y206061429D01*
X104727142Y206061429D01*
X104227142Y205061429D02*
X104227142Y206061429D01*
X104227142Y206561429D02*
X104298571Y206490000D01*
X104227142Y206418572D01*
X104155714Y206490000D01*
X104227142Y206561429D01*
X104227142Y206418572D01*
X102941428Y205132858D02*
X103084285Y205061429D01*
X103370000Y205061429D01*
X103512857Y205132858D01*
X103584285Y205275715D01*
X103584285Y205847143D01*
X103512857Y205990000D01*
X103370000Y206061429D01*
X103084285Y206061429D01*
X102941428Y205990000D01*
X102870000Y205847143D01*
X102870000Y205704286D01*
X103584285Y205561429D01*
X102227142Y205061429D02*
X102227142Y206061429D01*
X102227142Y205775715D02*
X102155714Y205918572D01*
X102084285Y205990000D01*
X101941428Y206061429D01*
X101798571Y206061429D01*
X100155714Y205061429D02*
X100155714Y206561429D01*
X100155714Y205990000D02*
X100012857Y206061429D01*
X99727142Y206061429D01*
X99584285Y205990000D01*
X99512857Y205918572D01*
X99441428Y205775715D01*
X99441428Y205347143D01*
X99512857Y205204286D01*
X99584285Y205132858D01*
X99727142Y205061429D01*
X100012857Y205061429D01*
X100155714Y205132858D01*
X98584285Y205061429D02*
X98727142Y205132858D01*
X98798571Y205204286D01*
X98870000Y205347143D01*
X98870000Y205775715D01*
X98798571Y205918572D01*
X98727142Y205990000D01*
X98584285Y206061429D01*
X98370000Y206061429D01*
X98227142Y205990000D01*
X98155714Y205918572D01*
X98084285Y205775715D01*
X98084285Y205347143D01*
X98155714Y205204286D01*
X98227142Y205132858D01*
X98370000Y205061429D01*
X98584285Y205061429D01*
X96798571Y205061429D02*
X96798571Y205847143D01*
X96870000Y205990000D01*
X97012857Y206061429D01*
X97298571Y206061429D01*
X97441428Y205990000D01*
X96798571Y205132858D02*
X96941428Y205061429D01*
X97298571Y205061429D01*
X97441428Y205132858D01*
X97512857Y205275715D01*
X97512857Y205418572D01*
X97441428Y205561429D01*
X97298571Y205632858D01*
X96941428Y205632858D01*
X96798571Y205704286D01*
X96084285Y205061429D02*
X96084285Y206061429D01*
X96084285Y205775715D02*
X96012857Y205918572D01*
X95941428Y205990000D01*
X95798571Y206061429D01*
X95655714Y206061429D01*
X94512857Y205061429D02*
X94512857Y206561429D01*
X94512857Y205132858D02*
X94655714Y205061429D01*
X94941428Y205061429D01*
X95084285Y205132858D01*
X95155714Y205204286D01*
X95227142Y205347143D01*
X95227142Y205775715D01*
X95155714Y205918572D01*
X95084285Y205990000D01*
X94941428Y206061429D01*
X94655714Y206061429D01*
X94512857Y205990000D01*
X92870000Y206061429D02*
X92298571Y206061429D01*
X92655714Y205061429D02*
X92655714Y206347143D01*
X92584285Y206490000D01*
X92441428Y206561429D01*
X92298571Y206561429D01*
X91584285Y205061429D02*
X91727142Y205132858D01*
X91798571Y205204286D01*
X91870000Y205347143D01*
X91870000Y205775715D01*
X91798571Y205918572D01*
X91727142Y205990000D01*
X91584285Y206061429D01*
X91370000Y206061429D01*
X91227142Y205990000D01*
X91155714Y205918572D01*
X91084285Y205775715D01*
X91084285Y205347143D01*
X91155714Y205204286D01*
X91227142Y205132858D01*
X91370000Y205061429D01*
X91584285Y205061429D01*
X90441428Y205061429D02*
X90441428Y206061429D01*
X90441428Y205775715D02*
X90370000Y205918572D01*
X90298571Y205990000D01*
X90155714Y206061429D01*
X90012857Y206061429D01*
X88370000Y205061429D02*
X88370000Y206561429D01*
X87798571Y206561429D01*
X87655714Y206490000D01*
X87584285Y206418572D01*
X87512857Y206275715D01*
X87512857Y206061429D01*
X87584285Y205918572D01*
X87655714Y205847143D01*
X87798571Y205775715D01*
X88370000Y205775715D01*
X86012857Y205204286D02*
X86084285Y205132858D01*
X86298571Y205061429D01*
X86441428Y205061429D01*
X86655714Y205132858D01*
X86798571Y205275715D01*
X86870000Y205418572D01*
X86941428Y205704286D01*
X86941428Y205918572D01*
X86870000Y206204286D01*
X86798571Y206347143D01*
X86655714Y206490000D01*
X86441428Y206561429D01*
X86298571Y206561429D01*
X86084285Y206490000D01*
X86012857Y206418572D01*
X84298571Y206632858D02*
X85584285Y204704286D01*
X83012857Y205061429D02*
X83870000Y205061429D01*
X83441428Y205061429D02*
X83441428Y206561429D01*
X83584285Y206347143D01*
X83727142Y206204286D01*
X83870000Y206132858D01*
X82084285Y206561429D02*
X81941428Y206561429D01*
X81798571Y206490000D01*
X81727142Y206418572D01*
X81655714Y206275715D01*
X81584285Y205990000D01*
X81584285Y205632858D01*
X81655714Y205347143D01*
X81727142Y205204286D01*
X81798571Y205132858D01*
X81941428Y205061429D01*
X82084285Y205061429D01*
X82227142Y205132858D01*
X82298571Y205204286D01*
X82370000Y205347143D01*
X82441428Y205632858D01*
X82441428Y205990000D01*
X82370000Y206275715D01*
X82298571Y206418572D01*
X82227142Y206490000D01*
X82084285Y206561429D01*
X80298571Y206061429D02*
X80298571Y205061429D01*
X80655714Y206632858D02*
X81012857Y205561429D01*
X80084285Y205561429D01*
X78441428Y205132858D02*
X78227142Y205061429D01*
X77870000Y205061429D01*
X77727142Y205132858D01*
X77655714Y205204286D01*
X77584285Y205347143D01*
X77584285Y205490000D01*
X77655714Y205632858D01*
X77727142Y205704286D01*
X77870000Y205775715D01*
X78155714Y205847143D01*
X78298571Y205918572D01*
X78370000Y205990000D01*
X78441428Y206132858D01*
X78441428Y206275715D01*
X78370000Y206418572D01*
X78298571Y206490000D01*
X78155714Y206561429D01*
X77798571Y206561429D01*
X77584285Y206490000D01*
X76441428Y205847143D02*
X76227142Y205775715D01*
X76155714Y205704286D01*
X76084285Y205561429D01*
X76084285Y205347143D01*
X76155714Y205204286D01*
X76227142Y205132858D01*
X76370000Y205061429D01*
X76941428Y205061429D01*
X76941428Y206561429D01*
X76441428Y206561429D01*
X76298571Y206490000D01*
X76227142Y206418572D01*
X76155714Y206275715D01*
X76155714Y206132858D01*
X76227142Y205990000D01*
X76298571Y205918572D01*
X76441428Y205847143D01*
X76941428Y205847143D01*
X74584285Y205204286D02*
X74655714Y205132858D01*
X74870000Y205061429D01*
X75012857Y205061429D01*
X75227142Y205132858D01*
X75370000Y205275715D01*
X75441428Y205418572D01*
X75512857Y205704286D01*
X75512857Y205918572D01*
X75441428Y206204286D01*
X75370000Y206347143D01*
X75227142Y206490000D01*
X75012857Y206561429D01*
X74870000Y206561429D01*
X74655714Y206490000D01*
X74584285Y206418572D01*
X74012857Y205132858D02*
X73870000Y205061429D01*
X73584285Y205061429D01*
X73441428Y205132858D01*
X73370000Y205275715D01*
X73370000Y205347143D01*
X73441428Y205490000D01*
X73584285Y205561429D01*
X73798571Y205561429D01*
X73941428Y205632858D01*
X74012857Y205775715D01*
X74012857Y205847143D01*
X73941428Y205990000D01*
X73798571Y206061429D01*
X73584285Y206061429D01*
X73441428Y205990000D01*
D11*
%TO.C,Ref\u002A\u002A*%
G36*
X39870056Y207651266D02*
G01*
X39808720Y207613691D01*
X39777907Y207573875D01*
X39763279Y207533223D01*
X39741741Y207464204D01*
X39717156Y207379389D01*
X39708437Y207347893D01*
X39659062Y207167202D01*
X39539951Y207289685D01*
X39459207Y207364694D01*
X39393465Y207404663D01*
X39336158Y207410976D01*
X39280723Y207385021D01*
X39243393Y207352316D01*
X39217026Y207323354D01*
X39198971Y207292878D01*
X39186869Y207251572D01*
X39178360Y207190122D01*
X39171084Y207099212D01*
X39168176Y207055383D01*
X39152810Y206818301D01*
X39049116Y206773693D01*
X38957175Y206719196D01*
X38867895Y206640710D01*
X38792201Y206550065D01*
X38741018Y206459094D01*
X38730815Y206428984D01*
X38707436Y206341576D01*
X38340238Y206195934D01*
X38221947Y206147846D01*
X38115996Y206102569D01*
X38029254Y206063216D01*
X37968589Y206032897D01*
X37941270Y206015188D01*
X37909547Y205950534D01*
X37910409Y205868356D01*
X37940417Y205773368D01*
X37996130Y205670283D01*
X38074111Y205563812D01*
X38170921Y205458669D01*
X38283119Y205359567D01*
X38407267Y205271218D01*
X38536019Y205200173D01*
X38700072Y205139520D01*
X38882594Y205100344D01*
X39063521Y205086593D01*
X39108009Y205087678D01*
X39258768Y205094967D01*
X39453802Y204195109D01*
X39496114Y204002072D01*
X39537214Y203818681D01*
X39575954Y203649775D01*
X39611184Y203500194D01*
X39641754Y203374774D01*
X39666515Y203278357D01*
X39684316Y203215780D01*
X39690871Y203197197D01*
X39729691Y203124611D01*
X39777389Y203058503D01*
X39794870Y203039779D01*
X39856834Y202980414D01*
X39856834Y202094323D01*
X39856740Y201858625D01*
X39857063Y201661769D01*
X39858706Y201500265D01*
X39862575Y201370625D01*
X39869575Y201269360D01*
X39880611Y201192980D01*
X39896588Y201137997D01*
X39918410Y201100922D01*
X39946983Y201078265D01*
X39983211Y201066538D01*
X40027999Y201062252D01*
X40082253Y201061918D01*
X40124540Y201062167D01*
X40223192Y201066234D01*
X40289126Y201080985D01*
X40331399Y201110246D01*
X40359068Y201157841D01*
X40360669Y201161900D01*
X40368827Y201195305D01*
X40382489Y201265745D01*
X40400836Y201368394D01*
X40423049Y201498430D01*
X40448308Y201651027D01*
X40475794Y201821361D01*
X40504689Y202004609D01*
X40514470Y202067584D01*
X40542966Y202251390D01*
X40569479Y202421659D01*
X40593308Y202573961D01*
X40613757Y202703865D01*
X40630125Y202806939D01*
X40641715Y202878753D01*
X40647829Y202914877D01*
X40648576Y202918332D01*
X40669388Y202923029D01*
X40724818Y202933340D01*
X40807716Y202947993D01*
X40910934Y202965713D01*
X40979221Y202977217D01*
X41077494Y202993789D01*
X41210166Y203016352D01*
X41369925Y203043653D01*
X41549462Y203074439D01*
X41741467Y203107457D01*
X41938628Y203141454D01*
X42109122Y203170930D01*
X42314209Y203206299D01*
X42481547Y203234736D01*
X42615062Y203256735D01*
X42718682Y203272791D01*
X42796334Y203283400D01*
X42851945Y203289055D01*
X42889441Y203290252D01*
X42912751Y203287485D01*
X42925801Y203281249D01*
X42931269Y203274500D01*
X42961774Y203225662D01*
X43000860Y203174734D01*
X43051647Y203119005D01*
X43117252Y203055761D01*
X43200795Y202982290D01*
X43305394Y202895880D01*
X43434166Y202793816D01*
X43590232Y202673387D01*
X43776708Y202531881D01*
X43838365Y202485426D01*
X44548914Y201950769D01*
X44489076Y201628176D01*
X44459061Y201460416D01*
X44439755Y201329472D01*
X44432830Y201230804D01*
X44439958Y201159873D01*
X44462809Y201112137D01*
X44503055Y201083056D01*
X44562367Y201068089D01*
X44642416Y201062697D01*
X44697408Y201062167D01*
X44789035Y201063814D01*
X44848957Y201070104D01*
X44887721Y201083061D01*
X44915129Y201103962D01*
X44951121Y201153411D01*
X44967780Y201193920D01*
X44980000Y201252563D01*
X44997077Y201340650D01*
X45017799Y201451326D01*
X45040952Y201577736D01*
X45065323Y201713026D01*
X45089698Y201850340D01*
X45112863Y201982823D01*
X45133605Y202103621D01*
X45150711Y202205878D01*
X45162965Y202282739D01*
X45169156Y202327350D01*
X45169667Y202334278D01*
X45156364Y202372501D01*
X45117548Y202440625D01*
X45054859Y202536076D01*
X44969936Y202656275D01*
X44929573Y202711435D01*
X44689479Y203036700D01*
X44750612Y203182203D01*
X44838555Y203434550D01*
X44891296Y203686066D01*
X44908969Y203932380D01*
X44891707Y204169118D01*
X44839640Y204391910D01*
X44752903Y204596383D01*
X44705309Y204677075D01*
X44624563Y204802004D01*
X44728339Y204828601D01*
X44828778Y204862105D01*
X44950106Y204914324D01*
X45079275Y204978666D01*
X45203235Y205048542D01*
X45308940Y205117361D01*
X45328417Y205131681D01*
X45522283Y205300748D01*
X45697851Y205498466D01*
X45803809Y205647574D01*
X45864407Y205749401D01*
X45898174Y205827490D01*
X45906569Y205889591D01*
X45891056Y205943454D01*
X45866631Y205980563D01*
X45819946Y206022082D01*
X45758241Y206036042D01*
X45743676Y206036334D01*
X45678589Y206029631D01*
X45628971Y206004235D01*
X45583673Y205952210D01*
X45550331Y205898750D01*
X45406375Y205692001D01*
X45231218Y205510014D01*
X45030153Y205356153D01*
X44808476Y205233780D01*
X44571483Y205146257D01*
X44324467Y205096946D01*
X44280667Y205092502D01*
X44238240Y205091573D01*
X44159336Y205092635D01*
X44047869Y205095505D01*
X43907752Y205100000D01*
X43742901Y205105938D01*
X43557230Y205113136D01*
X43354652Y205121412D01*
X43139081Y205130582D01*
X42914433Y205140465D01*
X42684620Y205150877D01*
X42453558Y205161637D01*
X42225160Y205172562D01*
X42003340Y205183468D01*
X41792013Y205194174D01*
X41595093Y205204497D01*
X41416493Y205214255D01*
X41260129Y205223264D01*
X41129913Y205231342D01*
X41029761Y205238307D01*
X40963587Y205243975D01*
X40935304Y205248166D01*
X40934624Y205248580D01*
X40925251Y205270731D01*
X40902847Y205329157D01*
X40868722Y205420306D01*
X40824182Y205540620D01*
X40770535Y205686545D01*
X40709089Y205854526D01*
X40641150Y206041008D01*
X40568027Y206242436D01*
X40502468Y206423588D01*
X40410807Y206676902D01*
X40332090Y206893266D01*
X40265000Y207075586D01*
X40208221Y207226771D01*
X40160434Y207349728D01*
X40120324Y207447366D01*
X40086572Y207522592D01*
X40057862Y207578314D01*
X40032877Y207617441D01*
X40010300Y207642879D01*
X39988813Y207657537D01*
X39967099Y207664322D01*
X39943841Y207666142D01*
X39939642Y207666167D01*
X39870056Y207651266D01*
G37*
X39870056Y207651266D02*
X39808720Y207613691D01*
X39777907Y207573875D01*
X39763279Y207533223D01*
X39741741Y207464204D01*
X39717156Y207379389D01*
X39708437Y207347893D01*
X39659062Y207167202D01*
X39539951Y207289685D01*
X39459207Y207364694D01*
X39393465Y207404663D01*
X39336158Y207410976D01*
X39280723Y207385021D01*
X39243393Y207352316D01*
X39217026Y207323354D01*
X39198971Y207292878D01*
X39186869Y207251572D01*
X39178360Y207190122D01*
X39171084Y207099212D01*
X39168176Y207055383D01*
X39152810Y206818301D01*
X39049116Y206773693D01*
X38957175Y206719196D01*
X38867895Y206640710D01*
X38792201Y206550065D01*
X38741018Y206459094D01*
X38730815Y206428984D01*
X38707436Y206341576D01*
X38340238Y206195934D01*
X38221947Y206147846D01*
X38115996Y206102569D01*
X38029254Y206063216D01*
X37968589Y206032897D01*
X37941270Y206015188D01*
X37909547Y205950534D01*
X37910409Y205868356D01*
X37940417Y205773368D01*
X37996130Y205670283D01*
X38074111Y205563812D01*
X38170921Y205458669D01*
X38283119Y205359567D01*
X38407267Y205271218D01*
X38536019Y205200173D01*
X38700072Y205139520D01*
X38882594Y205100344D01*
X39063521Y205086593D01*
X39108009Y205087678D01*
X39258768Y205094967D01*
X39453802Y204195109D01*
X39496114Y204002072D01*
X39537214Y203818681D01*
X39575954Y203649775D01*
X39611184Y203500194D01*
X39641754Y203374774D01*
X39666515Y203278357D01*
X39684316Y203215780D01*
X39690871Y203197197D01*
X39729691Y203124611D01*
X39777389Y203058503D01*
X39794870Y203039779D01*
X39856834Y202980414D01*
X39856834Y202094323D01*
X39856740Y201858625D01*
X39857063Y201661769D01*
X39858706Y201500265D01*
X39862575Y201370625D01*
X39869575Y201269360D01*
X39880611Y201192980D01*
X39896588Y201137997D01*
X39918410Y201100922D01*
X39946983Y201078265D01*
X39983211Y201066538D01*
X40027999Y201062252D01*
X40082253Y201061918D01*
X40124540Y201062167D01*
X40223192Y201066234D01*
X40289126Y201080985D01*
X40331399Y201110246D01*
X40359068Y201157841D01*
X40360669Y201161900D01*
X40368827Y201195305D01*
X40382489Y201265745D01*
X40400836Y201368394D01*
X40423049Y201498430D01*
X40448308Y201651027D01*
X40475794Y201821361D01*
X40504689Y202004609D01*
X40514470Y202067584D01*
X40542966Y202251390D01*
X40569479Y202421659D01*
X40593308Y202573961D01*
X40613757Y202703865D01*
X40630125Y202806939D01*
X40641715Y202878753D01*
X40647829Y202914877D01*
X40648576Y202918332D01*
X40669388Y202923029D01*
X40724818Y202933340D01*
X40807716Y202947993D01*
X40910934Y202965713D01*
X40979221Y202977217D01*
X41077494Y202993789D01*
X41210166Y203016352D01*
X41369925Y203043653D01*
X41549462Y203074439D01*
X41741467Y203107457D01*
X41938628Y203141454D01*
X42109122Y203170930D01*
X42314209Y203206299D01*
X42481547Y203234736D01*
X42615062Y203256735D01*
X42718682Y203272791D01*
X42796334Y203283400D01*
X42851945Y203289055D01*
X42889441Y203290252D01*
X42912751Y203287485D01*
X42925801Y203281249D01*
X42931269Y203274500D01*
X42961774Y203225662D01*
X43000860Y203174734D01*
X43051647Y203119005D01*
X43117252Y203055761D01*
X43200795Y202982290D01*
X43305394Y202895880D01*
X43434166Y202793816D01*
X43590232Y202673387D01*
X43776708Y202531881D01*
X43838365Y202485426D01*
X44548914Y201950769D01*
X44489076Y201628176D01*
X44459061Y201460416D01*
X44439755Y201329472D01*
X44432830Y201230804D01*
X44439958Y201159873D01*
X44462809Y201112137D01*
X44503055Y201083056D01*
X44562367Y201068089D01*
X44642416Y201062697D01*
X44697408Y201062167D01*
X44789035Y201063814D01*
X44848957Y201070104D01*
X44887721Y201083061D01*
X44915129Y201103962D01*
X44951121Y201153411D01*
X44967780Y201193920D01*
X44980000Y201252563D01*
X44997077Y201340650D01*
X45017799Y201451326D01*
X45040952Y201577736D01*
X45065323Y201713026D01*
X45089698Y201850340D01*
X45112863Y201982823D01*
X45133605Y202103621D01*
X45150711Y202205878D01*
X45162965Y202282739D01*
X45169156Y202327350D01*
X45169667Y202334278D01*
X45156364Y202372501D01*
X45117548Y202440625D01*
X45054859Y202536076D01*
X44969936Y202656275D01*
X44929573Y202711435D01*
X44689479Y203036700D01*
X44750612Y203182203D01*
X44838555Y203434550D01*
X44891296Y203686066D01*
X44908969Y203932380D01*
X44891707Y204169118D01*
X44839640Y204391910D01*
X44752903Y204596383D01*
X44705309Y204677075D01*
X44624563Y204802004D01*
X44728339Y204828601D01*
X44828778Y204862105D01*
X44950106Y204914324D01*
X45079275Y204978666D01*
X45203235Y205048542D01*
X45308940Y205117361D01*
X45328417Y205131681D01*
X45522283Y205300748D01*
X45697851Y205498466D01*
X45803809Y205647574D01*
X45864407Y205749401D01*
X45898174Y205827490D01*
X45906569Y205889591D01*
X45891056Y205943454D01*
X45866631Y205980563D01*
X45819946Y206022082D01*
X45758241Y206036042D01*
X45743676Y206036334D01*
X45678589Y206029631D01*
X45628971Y206004235D01*
X45583673Y205952210D01*
X45550331Y205898750D01*
X45406375Y205692001D01*
X45231218Y205510014D01*
X45030153Y205356153D01*
X44808476Y205233780D01*
X44571483Y205146257D01*
X44324467Y205096946D01*
X44280667Y205092502D01*
X44238240Y205091573D01*
X44159336Y205092635D01*
X44047869Y205095505D01*
X43907752Y205100000D01*
X43742901Y205105938D01*
X43557230Y205113136D01*
X43354652Y205121412D01*
X43139081Y205130582D01*
X42914433Y205140465D01*
X42684620Y205150877D01*
X42453558Y205161637D01*
X42225160Y205172562D01*
X42003340Y205183468D01*
X41792013Y205194174D01*
X41595093Y205204497D01*
X41416493Y205214255D01*
X41260129Y205223264D01*
X41129913Y205231342D01*
X41029761Y205238307D01*
X40963587Y205243975D01*
X40935304Y205248166D01*
X40934624Y205248580D01*
X40925251Y205270731D01*
X40902847Y205329157D01*
X40868722Y205420306D01*
X40824182Y205540620D01*
X40770535Y205686545D01*
X40709089Y205854526D01*
X40641150Y206041008D01*
X40568027Y206242436D01*
X40502468Y206423588D01*
X40410807Y206676902D01*
X40332090Y206893266D01*
X40265000Y207075586D01*
X40208221Y207226771D01*
X40160434Y207349728D01*
X40120324Y207447366D01*
X40086572Y207522592D01*
X40057862Y207578314D01*
X40032877Y207617441D01*
X40010300Y207642879D01*
X39988813Y207657537D01*
X39967099Y207664322D01*
X39943841Y207666142D01*
X39939642Y207666167D01*
X39870056Y207651266D01*
G36*
X46363507Y208452047D02*
G01*
X46312322Y208405921D01*
X46277857Y208345971D01*
X46270334Y208305638D01*
X46286251Y208245922D01*
X46333898Y208158563D01*
X46413122Y208043766D01*
X46523767Y207901737D01*
X46665679Y207732680D01*
X46838703Y207536799D01*
X46912230Y207455754D01*
X47094699Y207255925D01*
X47041742Y207186495D01*
X46968669Y207070007D01*
X46904524Y206929285D01*
X46856885Y206782408D01*
X46840691Y206706892D01*
X46825598Y206495334D01*
X46848574Y206278995D01*
X46907695Y206066972D01*
X47001036Y205868360D01*
X47027216Y205825416D01*
X47103890Y205710279D01*
X47203361Y205568461D01*
X47321240Y205405728D01*
X47453137Y205227850D01*
X47594663Y205040594D01*
X47741428Y204849727D01*
X47889042Y204661019D01*
X48033117Y204480236D01*
X48169261Y204313147D01*
X48268143Y204194834D01*
X48462855Y203970570D01*
X48680853Y203729137D01*
X48914971Y203477924D01*
X49158041Y203224323D01*
X49402898Y202975723D01*
X49642374Y202739515D01*
X49869303Y202523089D01*
X50048584Y202358760D01*
X50243933Y202186730D01*
X50450338Y202010435D01*
X50663998Y201832769D01*
X50881110Y201656625D01*
X51097875Y201484899D01*
X51310491Y201320484D01*
X51515157Y201166275D01*
X51708072Y201025165D01*
X51885435Y200900050D01*
X52043444Y200793823D01*
X52178300Y200709378D01*
X52286200Y200649610D01*
X52305588Y200640226D01*
X52467539Y200570633D01*
X52616724Y200521755D01*
X52766774Y200490748D01*
X52931320Y200474764D01*
X53116445Y200470916D01*
X53249394Y200473629D01*
X53364113Y200480022D01*
X53452101Y200489468D01*
X53498750Y200499179D01*
X53652429Y200565368D01*
X53787237Y200657805D01*
X53896090Y200770217D01*
X53971906Y200896329D01*
X53985126Y200929998D01*
X54024120Y201097625D01*
X54032066Y201257876D01*
X53401257Y201257876D01*
X53385405Y201190140D01*
X53338891Y201140208D01*
X53312948Y201127632D01*
X53252942Y201117936D01*
X53197869Y201139799D01*
X53139067Y201197111D01*
X53128111Y201210615D01*
X53081187Y201291100D01*
X53067348Y201365921D01*
X53084650Y201427989D01*
X53131148Y201470211D01*
X53203505Y201485500D01*
X53259910Y201475083D01*
X53311809Y201438235D01*
X53337808Y201410681D01*
X53385656Y201334396D01*
X53401257Y201257876D01*
X54032066Y201257876D01*
X54033481Y201286408D01*
X54013948Y201488016D01*
X53979732Y201635906D01*
X52628210Y201635906D01*
X52600042Y201570254D01*
X52537753Y201514385D01*
X52514476Y201501408D01*
X52409770Y201468035D01*
X52307280Y201475901D01*
X52249777Y201497569D01*
X52186822Y201543762D01*
X52149596Y201604394D01*
X52143819Y201667762D01*
X52153380Y201694762D01*
X52206068Y201752115D01*
X52279306Y201776741D01*
X52326595Y201773907D01*
X52391320Y201771715D01*
X52440510Y201781869D01*
X52511325Y201788421D01*
X52575632Y201758921D01*
X52618330Y201703696D01*
X52628210Y201635906D01*
X53979732Y201635906D01*
X53966263Y201694120D01*
X53901319Y201873243D01*
X53831769Y202023673D01*
X53816419Y202051367D01*
X51690668Y202051367D01*
X51675170Y201987597D01*
X51656050Y201955877D01*
X51606236Y201916847D01*
X51535973Y201913729D01*
X51444271Y201946498D01*
X51436984Y201950155D01*
X51349595Y202002094D01*
X51279866Y202057684D01*
X51235465Y202109933D01*
X51223334Y202144940D01*
X51242354Y202220433D01*
X51293695Y202276641D01*
X51322368Y202291272D01*
X51357843Y202298840D01*
X51398627Y202291625D01*
X51455814Y202266410D01*
X51511309Y202236459D01*
X51610502Y202172377D01*
X51669700Y202111820D01*
X51690668Y202051367D01*
X53816419Y202051367D01*
X53758098Y202156587D01*
X53739506Y202183758D01*
X53128148Y202183758D01*
X53101915Y202126536D01*
X53091292Y202115960D01*
X53033574Y202078359D01*
X52976384Y202071961D01*
X52912061Y202098166D01*
X52832943Y202158375D01*
X52826030Y202164451D01*
X52769661Y202233867D01*
X52764642Y202251163D01*
X52444147Y202251163D01*
X52419446Y202191865D01*
X52381959Y202159769D01*
X52282273Y202119108D01*
X52189499Y202104965D01*
X52112751Y202117755D01*
X52070825Y202145658D01*
X52034775Y202211303D01*
X52031648Y202285102D01*
X52055334Y202340746D01*
X52097926Y202372680D01*
X52166624Y202399765D01*
X52245208Y202417939D01*
X52317457Y202423138D01*
X52357062Y202416335D01*
X52411670Y202376646D01*
X52441127Y202317173D01*
X52444147Y202251163D01*
X52764642Y202251163D01*
X52749401Y202303680D01*
X52762880Y202366001D01*
X52807730Y202412942D01*
X52881580Y202436614D01*
X52908200Y202438000D01*
X52981746Y202421759D01*
X53045691Y202379107D01*
X53094859Y202319151D01*
X53124070Y202250999D01*
X53128148Y202183758D01*
X53739506Y202183758D01*
X53675199Y202277738D01*
X53577964Y202392881D01*
X53461286Y202507768D01*
X53320057Y202628154D01*
X53212140Y202711284D01*
X52218073Y202711284D01*
X52198720Y202649310D01*
X52171124Y202619117D01*
X52119747Y202593103D01*
X52065729Y202590888D01*
X51998995Y202613976D01*
X51921940Y202656304D01*
X51827789Y202722348D01*
X51773563Y202784355D01*
X51757415Y202845165D01*
X51761613Y202861843D01*
X50715334Y202861843D01*
X50698581Y202809385D01*
X50657743Y202755209D01*
X50606946Y202715811D01*
X50582620Y202706883D01*
X50519880Y202697311D01*
X50467253Y202698334D01*
X50405112Y202711486D01*
X50360505Y202724225D01*
X50273130Y202762237D01*
X50206726Y202814670D01*
X50169779Y202873783D01*
X50165000Y202902530D01*
X50178670Y202942617D01*
X50209993Y202986312D01*
X50247236Y203017288D01*
X50290463Y203026401D01*
X50342285Y203021327D01*
X50420595Y203011907D01*
X50508536Y203004738D01*
X50531991Y203003483D01*
X50619503Y202985560D01*
X50682213Y202944044D01*
X50713228Y202884260D01*
X50715334Y202861843D01*
X51761613Y202861843D01*
X51769060Y202891425D01*
X51807716Y202942312D01*
X51849557Y202971842D01*
X51885536Y202983432D01*
X51922682Y202980054D01*
X51974117Y202958845D01*
X52020787Y202934488D01*
X52090022Y202894564D01*
X52148978Y202856161D01*
X52177419Y202834051D01*
X52211140Y202778549D01*
X52218073Y202711284D01*
X53212140Y202711284D01*
X53149169Y202759791D01*
X53049660Y202832600D01*
X52581244Y203181057D01*
X52515772Y203233044D01*
X51371500Y203233044D01*
X51353454Y203184965D01*
X51308821Y203137863D01*
X51251860Y203103841D01*
X51207853Y203094167D01*
X51169828Y203102201D01*
X51124063Y203129560D01*
X51063709Y203181132D01*
X51003162Y203240240D01*
X50927282Y203320803D01*
X50880929Y203380804D01*
X50878716Y203385596D01*
X49882670Y203385596D01*
X49861596Y203322158D01*
X49839907Y203296316D01*
X49792943Y203257912D01*
X49747681Y203245964D01*
X49693165Y203260969D01*
X49618440Y203303425D01*
X49613481Y203306595D01*
X49528523Y203374499D01*
X49483262Y203442834D01*
X49478616Y203509704D01*
X49496002Y203548790D01*
X49548688Y203603034D01*
X49612228Y203619289D01*
X49688685Y203597369D01*
X49780127Y203537089D01*
X49798860Y203521710D01*
X49861727Y203452282D01*
X49882670Y203385596D01*
X50878716Y203385596D01*
X50860209Y203425663D01*
X50858209Y203442024D01*
X50876960Y203512430D01*
X50926939Y203561809D01*
X50998731Y203580987D01*
X51000787Y203581000D01*
X51037285Y203575950D01*
X51075620Y203557180D01*
X51123383Y203519266D01*
X51188167Y203456781D01*
X51219757Y203424506D01*
X51283347Y203355687D01*
X51333832Y203294889D01*
X51364822Y203250172D01*
X51371500Y203233044D01*
X52515772Y203233044D01*
X52143360Y203528750D01*
X51725353Y203884703D01*
X51565343Y204030800D01*
X49933494Y204030800D01*
X49924321Y203966222D01*
X49875396Y203913070D01*
X49858084Y203902115D01*
X49802194Y203885968D01*
X49739362Y203901451D01*
X49664762Y203950585D01*
X49597934Y204010981D01*
X49516073Y204103531D01*
X49473807Y204182448D01*
X49470998Y204248710D01*
X49507507Y204303297D01*
X49552667Y204333193D01*
X49604813Y204349931D01*
X49657560Y204342185D01*
X49717403Y204306805D01*
X49790839Y204240639D01*
X49832292Y204197589D01*
X49902842Y204107643D01*
X49933494Y204030800D01*
X51565343Y204030800D01*
X51417169Y204166090D01*
X50648784Y204166090D01*
X50632854Y204127413D01*
X50600796Y204095831D01*
X50543999Y204057924D01*
X50491819Y204051727D01*
X50436120Y204079000D01*
X50368764Y204141506D01*
X50363437Y204147209D01*
X50294746Y204230259D01*
X50259632Y204298121D01*
X50255643Y204357829D01*
X50263600Y204378822D01*
X49083909Y204378822D01*
X49063090Y204315816D01*
X49039478Y204286156D01*
X48982959Y204245980D01*
X48921524Y204243892D01*
X48850923Y204280404D01*
X48810395Y204313714D01*
X48747941Y204385047D01*
X48726454Y204450917D01*
X48745432Y204514364D01*
X48771690Y204548011D01*
X48831379Y204589576D01*
X48896104Y204590812D01*
X48968068Y204551441D01*
X49005233Y204518621D01*
X49064800Y204445225D01*
X49083909Y204378822D01*
X50263600Y204378822D01*
X50273536Y204405034D01*
X50309856Y204446073D01*
X50367495Y204464297D01*
X50384575Y204466103D01*
X50435890Y204466041D01*
X50476556Y204450724D01*
X50521668Y204412788D01*
X50546965Y204386874D01*
X50607682Y204308032D01*
X50641478Y204231472D01*
X50643324Y204222977D01*
X50648784Y204166090D01*
X51417169Y204166090D01*
X51316569Y204257942D01*
X50966967Y204596950D01*
X50837970Y204727834D01*
X50102861Y204727834D01*
X50088931Y204669057D01*
X50049960Y204624943D01*
X49991670Y204601470D01*
X49919782Y204604614D01*
X49840019Y204640352D01*
X49826334Y204649917D01*
X49775465Y204683105D01*
X49735819Y204701515D01*
X49728172Y204702834D01*
X49693642Y204720941D01*
X49660555Y204764835D01*
X49639061Y204818875D01*
X49635869Y204844843D01*
X48492834Y204844843D01*
X48474205Y204788357D01*
X48427588Y204738322D01*
X48366884Y204707295D01*
X48335618Y204702834D01*
X48292252Y204708833D01*
X48249654Y204731221D01*
X48197620Y204776585D01*
X48157238Y204817983D01*
X48092261Y204892499D01*
X48058523Y204949838D01*
X48053776Y204998724D01*
X48075774Y205047881D01*
X48092203Y205070396D01*
X48140690Y205115510D01*
X48192795Y205127458D01*
X48253176Y205105086D01*
X48326489Y205047239D01*
X48373195Y205000739D01*
X48428883Y204938831D01*
X48470760Y204885565D01*
X48491696Y204850231D01*
X48492834Y204844843D01*
X49635869Y204844843D01*
X49635834Y204845127D01*
X49654987Y204907645D01*
X49705630Y204954465D01*
X49777538Y204977106D01*
X49795975Y204978000D01*
X49873299Y204969162D01*
X49942834Y204938297D01*
X50018301Y204878885D01*
X50032709Y204865475D01*
X50086027Y204795299D01*
X50102861Y204727834D01*
X50837970Y204727834D01*
X50666326Y204901987D01*
X50385814Y205199770D01*
X50129640Y205486000D01*
X49403000Y205486000D01*
X49390490Y205444549D01*
X49360277Y205395074D01*
X49359131Y205393605D01*
X49302945Y205347026D01*
X49237719Y205340167D01*
X49161788Y205373183D01*
X49104641Y205417209D01*
X49029412Y205484298D01*
X48980776Y205530904D01*
X48953025Y205563906D01*
X48952111Y205565818D01*
X48600180Y205565818D01*
X48593165Y205502452D01*
X48551624Y205455451D01*
X48491495Y205426298D01*
X48432522Y205428655D01*
X48367378Y205464551D01*
X48299310Y205525310D01*
X48230163Y205605928D01*
X48198809Y205673865D01*
X48204247Y205733380D01*
X48235944Y205778244D01*
X47902327Y205778244D01*
X47894790Y205714846D01*
X47853124Y205667117D01*
X47787903Y205637177D01*
X47722915Y205642824D01*
X47651816Y205685520D01*
X47609927Y205723241D01*
X47547112Y205796249D01*
X47522092Y205858250D01*
X47533897Y205915247D01*
X47571122Y205963213D01*
X47624171Y206003063D01*
X47676838Y206010225D01*
X47736823Y205983534D01*
X47805390Y205927805D01*
X47872286Y205850544D01*
X47902327Y205778244D01*
X48235944Y205778244D01*
X48238834Y205782334D01*
X48295969Y205819794D01*
X48358545Y205820320D01*
X48430275Y205783089D01*
X48497398Y205724921D01*
X48568142Y205640545D01*
X48600180Y205565818D01*
X48952111Y205565818D01*
X48940450Y205590185D01*
X48937344Y205616621D01*
X48937334Y205618874D01*
X48955106Y205691853D01*
X49002861Y205742201D01*
X49072258Y205761166D01*
X49072942Y205761167D01*
X49139204Y205746205D01*
X49214359Y205706932D01*
X49288309Y205651768D01*
X49350952Y205589133D01*
X49392189Y205527448D01*
X49403000Y205486000D01*
X50129640Y205486000D01*
X50119040Y205497843D01*
X49859607Y205803750D01*
X49601121Y206125035D01*
X49337188Y206469241D01*
X49293545Y206528536D01*
X48659463Y206528536D01*
X48640719Y206486875D01*
X48640170Y206485897D01*
X48589803Y206426132D01*
X48526574Y206392417D01*
X48469138Y206390695D01*
X48436238Y206412726D01*
X48390420Y206459824D01*
X48343925Y206518692D01*
X48287867Y206607883D01*
X48273378Y206649997D01*
X47852290Y206649997D01*
X47828582Y206605358D01*
X47811509Y206587492D01*
X47745649Y206549512D01*
X47675300Y206553565D01*
X47628215Y206578332D01*
X47568773Y206632807D01*
X47514197Y206704374D01*
X47473532Y206778921D01*
X47455827Y206842337D01*
X47455667Y206847468D01*
X47467112Y206907293D01*
X47490698Y206950125D01*
X47543657Y206981489D01*
X47608638Y206985990D01*
X47666255Y206963456D01*
X47678861Y206951792D01*
X47766108Y206847832D01*
X47822879Y206766222D01*
X47850998Y206701947D01*
X47852290Y206649997D01*
X48273378Y206649997D01*
X48263972Y206677336D01*
X48271191Y206733567D01*
X48302334Y206777167D01*
X48365501Y206815675D01*
X48434993Y206814869D01*
X48507097Y206776563D01*
X48578103Y206702571D01*
X48633587Y206615280D01*
X48657437Y206564442D01*
X48659463Y206528536D01*
X49293545Y206528536D01*
X49061412Y206843913D01*
X49056197Y206851126D01*
X48954438Y206989885D01*
X48870208Y207099211D01*
X48797904Y207185122D01*
X48731923Y207253639D01*
X48666663Y207310783D01*
X48596520Y207362575D01*
X48553768Y207390999D01*
X48414021Y207471070D01*
X48277823Y207525105D01*
X48132147Y207556674D01*
X47963968Y207569343D01*
X47900167Y207569981D01*
X47781674Y207568057D01*
X47692980Y207561953D01*
X47621627Y207550038D01*
X47555156Y207530681D01*
X47529750Y207521474D01*
X47461060Y207495995D01*
X47408073Y207477066D01*
X47384244Y207469360D01*
X47362788Y207482733D01*
X47318603Y207523477D01*
X47256234Y207586590D01*
X47180226Y207667069D01*
X47095126Y207759911D01*
X47005479Y207860113D01*
X46915832Y207962673D01*
X46830730Y208062588D01*
X46754720Y208154854D01*
X46709975Y208211410D01*
X46630300Y208312487D01*
X46569516Y208383857D01*
X46522125Y208430416D01*
X46482628Y208457059D01*
X46445526Y208468680D01*
X46418930Y208470500D01*
X46363507Y208452047D01*
G37*
X46363507Y208452047D02*
X46312322Y208405921D01*
X46277857Y208345971D01*
X46270334Y208305638D01*
X46286251Y208245922D01*
X46333898Y208158563D01*
X46413122Y208043766D01*
X46523767Y207901737D01*
X46665679Y207732680D01*
X46838703Y207536799D01*
X46912230Y207455754D01*
X47094699Y207255925D01*
X47041742Y207186495D01*
X46968669Y207070007D01*
X46904524Y206929285D01*
X46856885Y206782408D01*
X46840691Y206706892D01*
X46825598Y206495334D01*
X46848574Y206278995D01*
X46907695Y206066972D01*
X47001036Y205868360D01*
X47027216Y205825416D01*
X47103890Y205710279D01*
X47203361Y205568461D01*
X47321240Y205405728D01*
X47453137Y205227850D01*
X47594663Y205040594D01*
X47741428Y204849727D01*
X47889042Y204661019D01*
X48033117Y204480236D01*
X48169261Y204313147D01*
X48268143Y204194834D01*
X48462855Y203970570D01*
X48680853Y203729137D01*
X48914971Y203477924D01*
X49158041Y203224323D01*
X49402898Y202975723D01*
X49642374Y202739515D01*
X49869303Y202523089D01*
X50048584Y202358760D01*
X50243933Y202186730D01*
X50450338Y202010435D01*
X50663998Y201832769D01*
X50881110Y201656625D01*
X51097875Y201484899D01*
X51310491Y201320484D01*
X51515157Y201166275D01*
X51708072Y201025165D01*
X51885435Y200900050D01*
X52043444Y200793823D01*
X52178300Y200709378D01*
X52286200Y200649610D01*
X52305588Y200640226D01*
X52467539Y200570633D01*
X52616724Y200521755D01*
X52766774Y200490748D01*
X52931320Y200474764D01*
X53116445Y200470916D01*
X53249394Y200473629D01*
X53364113Y200480022D01*
X53452101Y200489468D01*
X53498750Y200499179D01*
X53652429Y200565368D01*
X53787237Y200657805D01*
X53896090Y200770217D01*
X53971906Y200896329D01*
X53985126Y200929998D01*
X54024120Y201097625D01*
X54032066Y201257876D01*
X53401257Y201257876D01*
X53385405Y201190140D01*
X53338891Y201140208D01*
X53312948Y201127632D01*
X53252942Y201117936D01*
X53197869Y201139799D01*
X53139067Y201197111D01*
X53128111Y201210615D01*
X53081187Y201291100D01*
X53067348Y201365921D01*
X53084650Y201427989D01*
X53131148Y201470211D01*
X53203505Y201485500D01*
X53259910Y201475083D01*
X53311809Y201438235D01*
X53337808Y201410681D01*
X53385656Y201334396D01*
X53401257Y201257876D01*
X54032066Y201257876D01*
X54033481Y201286408D01*
X54013948Y201488016D01*
X53979732Y201635906D01*
X52628210Y201635906D01*
X52600042Y201570254D01*
X52537753Y201514385D01*
X52514476Y201501408D01*
X52409770Y201468035D01*
X52307280Y201475901D01*
X52249777Y201497569D01*
X52186822Y201543762D01*
X52149596Y201604394D01*
X52143819Y201667762D01*
X52153380Y201694762D01*
X52206068Y201752115D01*
X52279306Y201776741D01*
X52326595Y201773907D01*
X52391320Y201771715D01*
X52440510Y201781869D01*
X52511325Y201788421D01*
X52575632Y201758921D01*
X52618330Y201703696D01*
X52628210Y201635906D01*
X53979732Y201635906D01*
X53966263Y201694120D01*
X53901319Y201873243D01*
X53831769Y202023673D01*
X53816419Y202051367D01*
X51690668Y202051367D01*
X51675170Y201987597D01*
X51656050Y201955877D01*
X51606236Y201916847D01*
X51535973Y201913729D01*
X51444271Y201946498D01*
X51436984Y201950155D01*
X51349595Y202002094D01*
X51279866Y202057684D01*
X51235465Y202109933D01*
X51223334Y202144940D01*
X51242354Y202220433D01*
X51293695Y202276641D01*
X51322368Y202291272D01*
X51357843Y202298840D01*
X51398627Y202291625D01*
X51455814Y202266410D01*
X51511309Y202236459D01*
X51610502Y202172377D01*
X51669700Y202111820D01*
X51690668Y202051367D01*
X53816419Y202051367D01*
X53758098Y202156587D01*
X53739506Y202183758D01*
X53128148Y202183758D01*
X53101915Y202126536D01*
X53091292Y202115960D01*
X53033574Y202078359D01*
X52976384Y202071961D01*
X52912061Y202098166D01*
X52832943Y202158375D01*
X52826030Y202164451D01*
X52769661Y202233867D01*
X52764642Y202251163D01*
X52444147Y202251163D01*
X52419446Y202191865D01*
X52381959Y202159769D01*
X52282273Y202119108D01*
X52189499Y202104965D01*
X52112751Y202117755D01*
X52070825Y202145658D01*
X52034775Y202211303D01*
X52031648Y202285102D01*
X52055334Y202340746D01*
X52097926Y202372680D01*
X52166624Y202399765D01*
X52245208Y202417939D01*
X52317457Y202423138D01*
X52357062Y202416335D01*
X52411670Y202376646D01*
X52441127Y202317173D01*
X52444147Y202251163D01*
X52764642Y202251163D01*
X52749401Y202303680D01*
X52762880Y202366001D01*
X52807730Y202412942D01*
X52881580Y202436614D01*
X52908200Y202438000D01*
X52981746Y202421759D01*
X53045691Y202379107D01*
X53094859Y202319151D01*
X53124070Y202250999D01*
X53128148Y202183758D01*
X53739506Y202183758D01*
X53675199Y202277738D01*
X53577964Y202392881D01*
X53461286Y202507768D01*
X53320057Y202628154D01*
X53212140Y202711284D01*
X52218073Y202711284D01*
X52198720Y202649310D01*
X52171124Y202619117D01*
X52119747Y202593103D01*
X52065729Y202590888D01*
X51998995Y202613976D01*
X51921940Y202656304D01*
X51827789Y202722348D01*
X51773563Y202784355D01*
X51757415Y202845165D01*
X51761613Y202861843D01*
X50715334Y202861843D01*
X50698581Y202809385D01*
X50657743Y202755209D01*
X50606946Y202715811D01*
X50582620Y202706883D01*
X50519880Y202697311D01*
X50467253Y202698334D01*
X50405112Y202711486D01*
X50360505Y202724225D01*
X50273130Y202762237D01*
X50206726Y202814670D01*
X50169779Y202873783D01*
X50165000Y202902530D01*
X50178670Y202942617D01*
X50209993Y202986312D01*
X50247236Y203017288D01*
X50290463Y203026401D01*
X50342285Y203021327D01*
X50420595Y203011907D01*
X50508536Y203004738D01*
X50531991Y203003483D01*
X50619503Y202985560D01*
X50682213Y202944044D01*
X50713228Y202884260D01*
X50715334Y202861843D01*
X51761613Y202861843D01*
X51769060Y202891425D01*
X51807716Y202942312D01*
X51849557Y202971842D01*
X51885536Y202983432D01*
X51922682Y202980054D01*
X51974117Y202958845D01*
X52020787Y202934488D01*
X52090022Y202894564D01*
X52148978Y202856161D01*
X52177419Y202834051D01*
X52211140Y202778549D01*
X52218073Y202711284D01*
X53212140Y202711284D01*
X53149169Y202759791D01*
X53049660Y202832600D01*
X52581244Y203181057D01*
X52515772Y203233044D01*
X51371500Y203233044D01*
X51353454Y203184965D01*
X51308821Y203137863D01*
X51251860Y203103841D01*
X51207853Y203094167D01*
X51169828Y203102201D01*
X51124063Y203129560D01*
X51063709Y203181132D01*
X51003162Y203240240D01*
X50927282Y203320803D01*
X50880929Y203380804D01*
X50878716Y203385596D01*
X49882670Y203385596D01*
X49861596Y203322158D01*
X49839907Y203296316D01*
X49792943Y203257912D01*
X49747681Y203245964D01*
X49693165Y203260969D01*
X49618440Y203303425D01*
X49613481Y203306595D01*
X49528523Y203374499D01*
X49483262Y203442834D01*
X49478616Y203509704D01*
X49496002Y203548790D01*
X49548688Y203603034D01*
X49612228Y203619289D01*
X49688685Y203597369D01*
X49780127Y203537089D01*
X49798860Y203521710D01*
X49861727Y203452282D01*
X49882670Y203385596D01*
X50878716Y203385596D01*
X50860209Y203425663D01*
X50858209Y203442024D01*
X50876960Y203512430D01*
X50926939Y203561809D01*
X50998731Y203580987D01*
X51000787Y203581000D01*
X51037285Y203575950D01*
X51075620Y203557180D01*
X51123383Y203519266D01*
X51188167Y203456781D01*
X51219757Y203424506D01*
X51283347Y203355687D01*
X51333832Y203294889D01*
X51364822Y203250172D01*
X51371500Y203233044D01*
X52515772Y203233044D01*
X52143360Y203528750D01*
X51725353Y203884703D01*
X51565343Y204030800D01*
X49933494Y204030800D01*
X49924321Y203966222D01*
X49875396Y203913070D01*
X49858084Y203902115D01*
X49802194Y203885968D01*
X49739362Y203901451D01*
X49664762Y203950585D01*
X49597934Y204010981D01*
X49516073Y204103531D01*
X49473807Y204182448D01*
X49470998Y204248710D01*
X49507507Y204303297D01*
X49552667Y204333193D01*
X49604813Y204349931D01*
X49657560Y204342185D01*
X49717403Y204306805D01*
X49790839Y204240639D01*
X49832292Y204197589D01*
X49902842Y204107643D01*
X49933494Y204030800D01*
X51565343Y204030800D01*
X51417169Y204166090D01*
X50648784Y204166090D01*
X50632854Y204127413D01*
X50600796Y204095831D01*
X50543999Y204057924D01*
X50491819Y204051727D01*
X50436120Y204079000D01*
X50368764Y204141506D01*
X50363437Y204147209D01*
X50294746Y204230259D01*
X50259632Y204298121D01*
X50255643Y204357829D01*
X50263600Y204378822D01*
X49083909Y204378822D01*
X49063090Y204315816D01*
X49039478Y204286156D01*
X48982959Y204245980D01*
X48921524Y204243892D01*
X48850923Y204280404D01*
X48810395Y204313714D01*
X48747941Y204385047D01*
X48726454Y204450917D01*
X48745432Y204514364D01*
X48771690Y204548011D01*
X48831379Y204589576D01*
X48896104Y204590812D01*
X48968068Y204551441D01*
X49005233Y204518621D01*
X49064800Y204445225D01*
X49083909Y204378822D01*
X50263600Y204378822D01*
X50273536Y204405034D01*
X50309856Y204446073D01*
X50367495Y204464297D01*
X50384575Y204466103D01*
X50435890Y204466041D01*
X50476556Y204450724D01*
X50521668Y204412788D01*
X50546965Y204386874D01*
X50607682Y204308032D01*
X50641478Y204231472D01*
X50643324Y204222977D01*
X50648784Y204166090D01*
X51417169Y204166090D01*
X51316569Y204257942D01*
X50966967Y204596950D01*
X50837970Y204727834D01*
X50102861Y204727834D01*
X50088931Y204669057D01*
X50049960Y204624943D01*
X49991670Y204601470D01*
X49919782Y204604614D01*
X49840019Y204640352D01*
X49826334Y204649917D01*
X49775465Y204683105D01*
X49735819Y204701515D01*
X49728172Y204702834D01*
X49693642Y204720941D01*
X49660555Y204764835D01*
X49639061Y204818875D01*
X49635869Y204844843D01*
X48492834Y204844843D01*
X48474205Y204788357D01*
X48427588Y204738322D01*
X48366884Y204707295D01*
X48335618Y204702834D01*
X48292252Y204708833D01*
X48249654Y204731221D01*
X48197620Y204776585D01*
X48157238Y204817983D01*
X48092261Y204892499D01*
X48058523Y204949838D01*
X48053776Y204998724D01*
X48075774Y205047881D01*
X48092203Y205070396D01*
X48140690Y205115510D01*
X48192795Y205127458D01*
X48253176Y205105086D01*
X48326489Y205047239D01*
X48373195Y205000739D01*
X48428883Y204938831D01*
X48470760Y204885565D01*
X48491696Y204850231D01*
X48492834Y204844843D01*
X49635869Y204844843D01*
X49635834Y204845127D01*
X49654987Y204907645D01*
X49705630Y204954465D01*
X49777538Y204977106D01*
X49795975Y204978000D01*
X49873299Y204969162D01*
X49942834Y204938297D01*
X50018301Y204878885D01*
X50032709Y204865475D01*
X50086027Y204795299D01*
X50102861Y204727834D01*
X50837970Y204727834D01*
X50666326Y204901987D01*
X50385814Y205199770D01*
X50129640Y205486000D01*
X49403000Y205486000D01*
X49390490Y205444549D01*
X49360277Y205395074D01*
X49359131Y205393605D01*
X49302945Y205347026D01*
X49237719Y205340167D01*
X49161788Y205373183D01*
X49104641Y205417209D01*
X49029412Y205484298D01*
X48980776Y205530904D01*
X48953025Y205563906D01*
X48952111Y205565818D01*
X48600180Y205565818D01*
X48593165Y205502452D01*
X48551624Y205455451D01*
X48491495Y205426298D01*
X48432522Y205428655D01*
X48367378Y205464551D01*
X48299310Y205525310D01*
X48230163Y205605928D01*
X48198809Y205673865D01*
X48204247Y205733380D01*
X48235944Y205778244D01*
X47902327Y205778244D01*
X47894790Y205714846D01*
X47853124Y205667117D01*
X47787903Y205637177D01*
X47722915Y205642824D01*
X47651816Y205685520D01*
X47609927Y205723241D01*
X47547112Y205796249D01*
X47522092Y205858250D01*
X47533897Y205915247D01*
X47571122Y205963213D01*
X47624171Y206003063D01*
X47676838Y206010225D01*
X47736823Y205983534D01*
X47805390Y205927805D01*
X47872286Y205850544D01*
X47902327Y205778244D01*
X48235944Y205778244D01*
X48238834Y205782334D01*
X48295969Y205819794D01*
X48358545Y205820320D01*
X48430275Y205783089D01*
X48497398Y205724921D01*
X48568142Y205640545D01*
X48600180Y205565818D01*
X48952111Y205565818D01*
X48940450Y205590185D01*
X48937344Y205616621D01*
X48937334Y205618874D01*
X48955106Y205691853D01*
X49002861Y205742201D01*
X49072258Y205761166D01*
X49072942Y205761167D01*
X49139204Y205746205D01*
X49214359Y205706932D01*
X49288309Y205651768D01*
X49350952Y205589133D01*
X49392189Y205527448D01*
X49403000Y205486000D01*
X50129640Y205486000D01*
X50119040Y205497843D01*
X49859607Y205803750D01*
X49601121Y206125035D01*
X49337188Y206469241D01*
X49293545Y206528536D01*
X48659463Y206528536D01*
X48640719Y206486875D01*
X48640170Y206485897D01*
X48589803Y206426132D01*
X48526574Y206392417D01*
X48469138Y206390695D01*
X48436238Y206412726D01*
X48390420Y206459824D01*
X48343925Y206518692D01*
X48287867Y206607883D01*
X48273378Y206649997D01*
X47852290Y206649997D01*
X47828582Y206605358D01*
X47811509Y206587492D01*
X47745649Y206549512D01*
X47675300Y206553565D01*
X47628215Y206578332D01*
X47568773Y206632807D01*
X47514197Y206704374D01*
X47473532Y206778921D01*
X47455827Y206842337D01*
X47455667Y206847468D01*
X47467112Y206907293D01*
X47490698Y206950125D01*
X47543657Y206981489D01*
X47608638Y206985990D01*
X47666255Y206963456D01*
X47678861Y206951792D01*
X47766108Y206847832D01*
X47822879Y206766222D01*
X47850998Y206701947D01*
X47852290Y206649997D01*
X48273378Y206649997D01*
X48263972Y206677336D01*
X48271191Y206733567D01*
X48302334Y206777167D01*
X48365501Y206815675D01*
X48434993Y206814869D01*
X48507097Y206776563D01*
X48578103Y206702571D01*
X48633587Y206615280D01*
X48657437Y206564442D01*
X48659463Y206528536D01*
X49293545Y206528536D01*
X49061412Y206843913D01*
X49056197Y206851126D01*
X48954438Y206989885D01*
X48870208Y207099211D01*
X48797904Y207185122D01*
X48731923Y207253639D01*
X48666663Y207310783D01*
X48596520Y207362575D01*
X48553768Y207390999D01*
X48414021Y207471070D01*
X48277823Y207525105D01*
X48132147Y207556674D01*
X47963968Y207569343D01*
X47900167Y207569981D01*
X47781674Y207568057D01*
X47692980Y207561953D01*
X47621627Y207550038D01*
X47555156Y207530681D01*
X47529750Y207521474D01*
X47461060Y207495995D01*
X47408073Y207477066D01*
X47384244Y207469360D01*
X47362788Y207482733D01*
X47318603Y207523477D01*
X47256234Y207586590D01*
X47180226Y207667069D01*
X47095126Y207759911D01*
X47005479Y207860113D01*
X46915832Y207962673D01*
X46830730Y208062588D01*
X46754720Y208154854D01*
X46709975Y208211410D01*
X46630300Y208312487D01*
X46569516Y208383857D01*
X46522125Y208430416D01*
X46482628Y208457059D01*
X46445526Y208468680D01*
X46418930Y208470500D01*
X46363507Y208452047D01*
%TD*%
M02*
